{
	"asset":{
		"generator":"Khronos glTF Blender I/O v5.1.19",
		"version":"2.0"
	},
	"scene":0,
	"scenes":[
		{
			"name":"Scene",
			"nodes":[
				0,
				1,
				2
			]
		}
	],
	"nodes":[
		{
			"mesh":0,
			"name":"tree_single_B",
			"translation":[
				-0.1371757984161377,
				0.09999989718198776,
				0.33055442571640015
			]
		},
		{
			"mesh":0,
			"name":"tree_single_B.001",
			"translation":[
				0.7205873727798462,
				0.09999983757734299,
				-0.35109883546829224
			]
		},
		{
			"mesh":1,
			"name":"rock_single_C",
			"translation":[
				0.5694629549980164,
				9.364118886878714e-05,
				0.40847957134246826
			]
		}
	],
	"materials":[
		{
			"name":"hexagons_medieval.007",
			"pbrMetallicRoughness":{
				"baseColorTexture":{
					"index":0
				},
				"metallicFactor":0,
				"roughnessFactor":0.5
			}
		},
		{
			"name":"hexagons_medieval.008",
			"pbrMetallicRoughness":{
				"baseColorTexture":{
					"index":1
				},
				"metallicFactor":0,
				"roughnessFactor":0.5
			}
		}
	],
	"meshes":[
		{
			"name":"tree_single_B.001",
			"primitives":[
				{
					"attributes":{
						"POSITION":0,
						"NORMAL":1,
						"TEXCOORD_0":2
					},
					"indices":3,
					"material":0
				}
			]
		},
		{
			"name":"rock_single_C.002",
			"primitives":[
				{
					"attributes":{
						"POSITION":4,
						"NORMAL":5,
						"TEXCOORD_0":6
					},
					"indices":7,
					"material":1
				}
			]
		}
	],
	"textures":[
		{
			"sampler":0,
			"source":0
		},
		{
			"sampler":0,
			"source":0
		}
	],
	"images":[
		{
			"mimeType":"image/png",
			"name":"hexagons_medieval",
			"uri":"hexagons_medieval.png"
		}
	],
	"accessors":[
		{
			"bufferView":0,
			"componentType":5126,
			"count":189,
			"max":[
				0.34244194626808167,
				1.1126774549484253,
				0.360063761472702
			],
			"min":[
				-0.34244003891944885,
				-0.09999983757734299,
				-0.3600638508796692
			],
			"type":"VEC3"
		},
		{
			"bufferView":1,
			"componentType":5126,
			"count":189,
			"type":"VEC3"
		},
		{
			"bufferView":2,
			"componentType":5126,
			"count":189,
			"type":"VEC2"
		},
		{
			"bufferView":3,
			"componentType":5123,
			"count":660,
			"type":"SCALAR"
		},
		{
			"bufferView":4,
			"componentType":5126,
			"count":61,
			"max":[
				0.1586364507675171,
				0.19468727707862854,
				0.16218942403793335
			],
			"min":[
				-0.18526723980903625,
				-9.38796074478887e-05,
				-0.18201489746570587
			],
			"type":"VEC3"
		},
		{
			"bufferView":5,
			"componentType":5126,
			"count":61,
			"type":"VEC3"
		},
		{
			"bufferView":6,
			"componentType":5126,
			"count":61,
			"type":"VEC2"
		},
		{
			"bufferView":7,
			"componentType":5123,
			"count":120,
			"type":"SCALAR"
		}
	],
	"bufferViews":[
		{
			"buffer":0,
			"byteLength":2268,
			"byteOffset":0,
			"target":34962
		},
		{
			"buffer":0,
			"byteLength":2268,
			"byteOffset":2268,
			"target":34962
		},
		{
			"buffer":0,
			"byteLength":1512,
			"byteOffset":4536,
			"target":34962
		},
		{
			"buffer":0,
			"byteLength":1320,
			"byteOffset":6048,
			"target":34963
		},
		{
			"buffer":0,
			"byteLength":732,
			"byteOffset":7368,
			"target":34962
		},
		{
			"buffer":0,
			"byteLength":732,
			"byteOffset":8100,
			"target":34962
		},
		{
			"buffer":0,
			"byteLength":488,
			"byteOffset":8832,
			"target":34962
		},
		{
			"buffer":0,
			"byteLength":240,
			"byteOffset":9320,
			"target":34963
		}
	],
	"samplers":[
		{
			"magFilter":9729,
			"minFilter":9987
		}
	],
	"buffers":[
		{
			"byteLength":9560,
			"uri":"sparse_1_B.bin"
		}
	]
}
