{
	"asset":{
		"generator":"Khronos glTF Blender I/O v5.1.19",
		"version":"2.0"
	},
	"scene":0,
	"scenes":[
		{
			"name":"Scene",
			"nodes":[
				0,
				1,
				2,
				3,
				4
			]
		}
	],
	"nodes":[
		{
			"mesh":0,
			"name":"hill_single_C",
			"scale":[
				0.5019482970237732,
				0.5019482970237732,
				0.5019482970237732
			],
			"translation":[
				-0.44590261578559875,
				-0.07675133645534515,
				-0.32639041543006897
			]
		},
		{
			"mesh":1,
			"name":"rock_single_C",
			"translation":[
				-0.1933196783065796,
				-0.07530969381332397,
				-0.170954167842865
			]
		},
		{
			"mesh":2,
			"name":"tree_single_B",
			"translation":[
				0.011547327041625977,
				0.09999959915876389,
				0.6744692921638489
			]
		},
		{
			"mesh":2,
			"name":"tree_single_B.001",
			"rotation":[
				0.009469722397625446,
				0.0005485033034346998,
				-0.05782228335738182,
				0.9982818365097046
			],
			"translation":[
				-0.3759627938270569,
				0.31049567461013794,
				-0.2617366909980774
			]
		},
		{
			"mesh":2,
			"name":"tree_single_B.002",
			"translation":[
				0.6328113079071045,
				0.09999995678663254,
				0.11065571010112762
			]
		}
	],
	"materials":[
		{
			"name":"hexagons_medieval.003",
			"pbrMetallicRoughness":{
				"baseColorTexture":{
					"index":0
				},
				"metallicFactor":0,
				"roughnessFactor":0.5
			}
		},
		{
			"name":"hexagons_medieval.020",
			"pbrMetallicRoughness":{
				"baseColorTexture":{
					"index":1
				},
				"metallicFactor":0,
				"roughnessFactor":0.5
			}
		},
		{
			"name":"hexagons_medieval.025",
			"pbrMetallicRoughness":{
				"baseColorTexture":{
					"index":2
				},
				"metallicFactor":0,
				"roughnessFactor":0.5
			}
		}
	],
	"meshes":[
		{
			"name":"hill_single_C",
			"primitives":[
				{
					"attributes":{
						"POSITION":0,
						"NORMAL":1,
						"TEXCOORD_0":2
					},
					"indices":3,
					"material":0
				}
			]
		},
		{
			"name":"rock_single_C",
			"primitives":[
				{
					"attributes":{
						"POSITION":4,
						"NORMAL":5,
						"TEXCOORD_0":6
					},
					"indices":7,
					"material":1
				}
			]
		},
		{
			"name":"tree_single_B",
			"primitives":[
				{
					"attributes":{
						"POSITION":8,
						"NORMAL":9,
						"TEXCOORD_0":10
					},
					"indices":11,
					"material":2
				}
			]
		}
	],
	"textures":[
		{
			"sampler":0,
			"source":0
		},
		{
			"sampler":0,
			"source":0
		},
		{
			"sampler":0,
			"source":0
		}
	],
	"images":[
		{
			"mimeType":"image/png",
			"name":"hexagons_medieval",
			"uri":"hexagons_medieval.png"
		}
	],
	"accessors":[
		{
			"bufferView":0,
			"componentType":5126,
			"count":95,
			"max":[
				0.5132275819778442,
				0.5885831117630005,
				0.6190618276596069
			],
			"min":[
				-0.5111537575721741,
				0,
				-0.7058466672897339
			],
			"type":"VEC3"
		},
		{
			"bufferView":1,
			"componentType":5126,
			"count":95,
			"type":"VEC3"
		},
		{
			"bufferView":2,
			"componentType":5126,
			"count":95,
			"type":"VEC2"
		},
		{
			"bufferView":3,
			"componentType":5123,
			"count":180,
			"type":"SCALAR"
		},
		{
			"bufferView":4,
			"componentType":5126,
			"count":61,
			"max":[
				0.1586364507675171,
				0.19468727707862854,
				0.16218942403793335
			],
			"min":[
				-0.18526723980903625,
				-9.38796074478887e-05,
				-0.18201489746570587
			],
			"type":"VEC3"
		},
		{
			"bufferView":5,
			"componentType":5126,
			"count":61,
			"type":"VEC3"
		},
		{
			"bufferView":6,
			"componentType":5126,
			"count":61,
			"type":"VEC2"
		},
		{
			"bufferView":7,
			"componentType":5123,
			"count":120,
			"type":"SCALAR"
		},
		{
			"bufferView":8,
			"componentType":5126,
			"count":189,
			"max":[
				0.34244194626808167,
				1.1126774549484253,
				0.360063761472702
			],
			"min":[
				-0.34244003891944885,
				-0.09999983757734299,
				-0.3600638508796692
			],
			"type":"VEC3"
		},
		{
			"bufferView":9,
			"componentType":5126,
			"count":189,
			"type":"VEC3"
		},
		{
			"bufferView":10,
			"componentType":5126,
			"count":189,
			"type":"VEC2"
		},
		{
			"bufferView":11,
			"componentType":5123,
			"count":660,
			"type":"SCALAR"
		}
	],
	"bufferViews":[
		{
			"buffer":0,
			"byteLength":1140,
			"byteOffset":0,
			"target":34962
		},
		{
			"buffer":0,
			"byteLength":1140,
			"byteOffset":1140,
			"target":34962
		},
		{
			"buffer":0,
			"byteLength":760,
			"byteOffset":2280,
			"target":34962
		},
		{
			"buffer":0,
			"byteLength":360,
			"byteOffset":3040,
			"target":34963
		},
		{
			"buffer":0,
			"byteLength":732,
			"byteOffset":3400,
			"target":34962
		},
		{
			"buffer":0,
			"byteLength":732,
			"byteOffset":4132,
			"target":34962
		},
		{
			"buffer":0,
			"byteLength":488,
			"byteOffset":4864,
			"target":34962
		},
		{
			"buffer":0,
			"byteLength":240,
			"byteOffset":5352,
			"target":34963
		},
		{
			"buffer":0,
			"byteLength":2268,
			"byteOffset":5592,
			"target":34962
		},
		{
			"buffer":0,
			"byteLength":2268,
			"byteOffset":7860,
			"target":34962
		},
		{
			"buffer":0,
			"byteLength":1512,
			"byteOffset":10128,
			"target":34962
		},
		{
			"buffer":0,
			"byteLength":1320,
			"byteOffset":11640,
			"target":34963
		}
	],
	"samplers":[
		{
			"magFilter":9729,
			"minFilter":9987
		}
	],
	"buffers":[
		{
			"byteLength":12960,
			"uri":"sparse_6_B.bin"
		}
	]
}
