{
	"asset":{
		"generator":"Khronos glTF Blender I/O v5.1.19",
		"version":"2.0"
	},
	"scene":0,
	"scenes":[
		{
			"name":"Scene",
			"nodes":[
				0,
				1,
				2,
				3,
				4,
				5,
				6
			]
		}
	],
	"nodes":[
		{
			"mesh":0,
			"name":"rock_single_C",
			"rotation":[
				0,
				0.4472135305404663,
				0,
				0.8944272398948669
			],
			"translation":[
				0.5578501224517822,
				-0.09910835325717926,
				-0.2588181495666504
			]
		},
		{
			"mesh":1,
			"name":"rock_single_D",
			"translation":[
				-0.05271904915571213,
				0,
				0.7774909734725952
			]
		},
		{
			"mesh":0,
			"name":"rock_single_C.001",
			"scale":[
				1.2868757247924805,
				1.2868757247924805,
				1.2868757247924805
			],
			"translation":[
				-0.7467003464698792,
				-0.07978896796703339,
				0.49432075023651123
			]
		},
		{
			"mesh":2,
			"name":"rock_single_E",
			"scale":[
				1.148952603340149,
				1.148952603340149,
				1.148952603340149
			],
			"translation":[
				-0.42338553071022034,
				-0.016611173748970032,
				-0.4966723322868347
			]
		},
		{
			"mesh":3,
			"name":"hill_single_A",
			"scale":[
				0.5896962285041809,
				0.5896962285041809,
				0.5896962285041809
			],
			"translation":[
				0.2574588358402252,
				-0.04244200140237808,
				0.22163264453411102
			]
		},
		{
			"mesh":4,
			"name":"rock_single_A",
			"translation":[
				0.41490602493286133,
				0,
				0.008538380265235901
			]
		},
		{
			"mesh":1,
			"name":"rock_single_D.001",
			"translation":[
				0.5556010603904724,
				0,
				0.10001914203166962
			]
		}
	],
	"materials":[
		{
			"name":"hexagons_medieval.020",
			"pbrMetallicRoughness":{
				"baseColorTexture":{
					"index":0
				},
				"metallicFactor":0,
				"roughnessFactor":0.5
			}
		},
		{
			"name":"hexagons_medieval.021",
			"pbrMetallicRoughness":{
				"baseColorTexture":{
					"index":1
				},
				"metallicFactor":0,
				"roughnessFactor":0.5
			}
		},
		{
			"name":"hexagons_medieval.022",
			"pbrMetallicRoughness":{
				"baseColorTexture":{
					"index":2
				},
				"metallicFactor":0,
				"roughnessFactor":0.5
			}
		},
		{
			"name":"hexagons_medieval.001",
			"pbrMetallicRoughness":{
				"baseColorTexture":{
					"index":3
				},
				"metallicFactor":0,
				"roughnessFactor":0.5
			}
		},
		{
			"name":"hexagons_medieval.018",
			"pbrMetallicRoughness":{
				"baseColorTexture":{
					"index":4
				},
				"metallicFactor":0,
				"roughnessFactor":0.5
			}
		}
	],
	"meshes":[
		{
			"name":"rock_single_C",
			"primitives":[
				{
					"attributes":{
						"POSITION":0,
						"NORMAL":1,
						"TEXCOORD_0":2
					},
					"indices":3,
					"material":0
				}
			]
		},
		{
			"name":"rock_single_D",
			"primitives":[
				{
					"attributes":{
						"POSITION":4,
						"NORMAL":5,
						"TEXCOORD_0":6
					},
					"indices":7,
					"material":1
				}
			]
		},
		{
			"name":"rock_single_E",
			"primitives":[
				{
					"attributes":{
						"POSITION":8,
						"NORMAL":9,
						"TEXCOORD_0":10
					},
					"indices":11,
					"material":2
				}
			]
		},
		{
			"name":"hill_single_A",
			"primitives":[
				{
					"attributes":{
						"POSITION":12,
						"NORMAL":13,
						"TEXCOORD_0":14
					},
					"indices":15,
					"material":3
				}
			]
		},
		{
			"name":"rock_single_A",
			"primitives":[
				{
					"attributes":{
						"POSITION":16,
						"NORMAL":17,
						"TEXCOORD_0":18
					},
					"indices":19,
					"material":4
				}
			]
		}
	],
	"textures":[
		{
			"sampler":0,
			"source":0
		},
		{
			"sampler":0,
			"source":0
		},
		{
			"sampler":0,
			"source":0
		},
		{
			"sampler":0,
			"source":0
		},
		{
			"sampler":0,
			"source":0
		}
	],
	"images":[
		{
			"mimeType":"image/png",
			"name":"hexagons_medieval",
			"uri":"hexagons_medieval.png"
		}
	],
	"accessors":[
		{
			"bufferView":0,
			"componentType":5126,
			"count":61,
			"max":[
				0.1586364507675171,
				0.19468727707862854,
				0.16218942403793335
			],
			"min":[
				-0.18526723980903625,
				-9.38796074478887e-05,
				-0.18201489746570587
			],
			"type":"VEC3"
		},
		{
			"bufferView":1,
			"componentType":5126,
			"count":61,
			"type":"VEC3"
		},
		{
			"bufferView":2,
			"componentType":5126,
			"count":61,
			"type":"VEC2"
		},
		{
			"bufferView":3,
			"componentType":5123,
			"count":120,
			"type":"SCALAR"
		},
		{
			"bufferView":4,
			"componentType":5126,
			"count":38,
			"max":[
				0.14463868737220764,
				0.16293124854564667,
				0.12004894018173218
			],
			"min":[
				-0.14197711646556854,
				-9.681238033465434e-10,
				-0.12970057129859924
			],
			"type":"VEC3"
		},
		{
			"bufferView":5,
			"componentType":5126,
			"count":38,
			"type":"VEC3"
		},
		{
			"bufferView":6,
			"componentType":5126,
			"count":38,
			"type":"VEC2"
		},
		{
			"bufferView":7,
			"componentType":5123,
			"count":66,
			"type":"SCALAR"
		},
		{
			"bufferView":8,
			"componentType":5126,
			"count":121,
			"max":[
				0.23278957605361938,
				0.19468727707862854,
				0.1627117246389389
			],
			"min":[
				-0.2553517520427704,
				-9.38796074478887e-05,
				-0.18480737507343292
			],
			"type":"VEC3"
		},
		{
			"bufferView":9,
			"componentType":5126,
			"count":121,
			"type":"VEC3"
		},
		{
			"bufferView":10,
			"componentType":5126,
			"count":121,
			"type":"VEC2"
		},
		{
			"bufferView":11,
			"componentType":5123,
			"count":213,
			"type":"SCALAR"
		},
		{
			"bufferView":12,
			"componentType":5126,
			"count":93,
			"max":[
				0.5911246538162231,
				0.3072676658630371,
				0.4076184034347534
			],
			"min":[
				-0.5187833905220032,
				0,
				-0.40169641375541687
			],
			"type":"VEC3"
		},
		{
			"bufferView":13,
			"componentType":5126,
			"count":93,
			"type":"VEC3"
		},
		{
			"bufferView":14,
			"componentType":5126,
			"count":93,
			"type":"VEC2"
		},
		{
			"bufferView":15,
			"componentType":5123,
			"count":180,
			"type":"SCALAR"
		},
		{
			"bufferView":16,
			"componentType":5126,
			"count":35,
			"max":[
				0.14910902082920074,
				0.06930101662874222,
				0.12683971226215363
			],
			"min":[
				-0.14910900592803955,
				0,
				-0.15678249299526215
			],
			"type":"VEC3"
		},
		{
			"bufferView":17,
			"componentType":5126,
			"count":35,
			"type":"VEC3"
		},
		{
			"bufferView":18,
			"componentType":5126,
			"count":35,
			"type":"VEC2"
		},
		{
			"bufferView":19,
			"componentType":5123,
			"count":54,
			"type":"SCALAR"
		}
	],
	"bufferViews":[
		{
			"buffer":0,
			"byteLength":732,
			"byteOffset":0,
			"target":34962
		},
		{
			"buffer":0,
			"byteLength":732,
			"byteOffset":732,
			"target":34962
		},
		{
			"buffer":0,
			"byteLength":488,
			"byteOffset":1464,
			"target":34962
		},
		{
			"buffer":0,
			"byteLength":240,
			"byteOffset":1952,
			"target":34963
		},
		{
			"buffer":0,
			"byteLength":456,
			"byteOffset":2192,
			"target":34962
		},
		{
			"buffer":0,
			"byteLength":456,
			"byteOffset":2648,
			"target":34962
		},
		{
			"buffer":0,
			"byteLength":304,
			"byteOffset":3104,
			"target":34962
		},
		{
			"buffer":0,
			"byteLength":132,
			"byteOffset":3408,
			"target":34963
		},
		{
			"buffer":0,
			"byteLength":1452,
			"byteOffset":3540,
			"target":34962
		},
		{
			"buffer":0,
			"byteLength":1452,
			"byteOffset":4992,
			"target":34962
		},
		{
			"buffer":0,
			"byteLength":968,
			"byteOffset":6444,
			"target":34962
		},
		{
			"buffer":0,
			"byteLength":426,
			"byteOffset":7412,
			"target":34963
		},
		{
			"buffer":0,
			"byteLength":1116,
			"byteOffset":7840,
			"target":34962
		},
		{
			"buffer":0,
			"byteLength":1116,
			"byteOffset":8956,
			"target":34962
		},
		{
			"buffer":0,
			"byteLength":744,
			"byteOffset":10072,
			"target":34962
		},
		{
			"buffer":0,
			"byteLength":360,
			"byteOffset":10816,
			"target":34963
		},
		{
			"buffer":0,
			"byteLength":420,
			"byteOffset":11176,
			"target":34962
		},
		{
			"buffer":0,
			"byteLength":420,
			"byteOffset":11596,
			"target":34962
		},
		{
			"buffer":0,
			"byteLength":280,
			"byteOffset":12016,
			"target":34962
		},
		{
			"buffer":0,
			"byteLength":108,
			"byteOffset":12296,
			"target":34963
		}
	],
	"samplers":[
		{
			"magFilter":9729,
			"minFilter":9987
		}
	],
	"buffers":[
		{
			"byteLength":12404,
			"uri":"sparse_3.bin"
		}
	]
}
