{
	"asset":{
		"generator":"Khronos glTF Blender I/O v5.1.19",
		"version":"2.0"
	},
	"scene":0,
	"scenes":[
		{
			"name":"Scene",
			"nodes":[
				0,
				1,
				2,
				3,
				4
			]
		}
	],
	"nodes":[
		{
			"mesh":0,
			"name":"tree_single_A",
			"translation":[
				0.4774811863899231,
				0.10260728746652603,
				-0.3366764783859253
			]
		},
		{
			"mesh":0,
			"name":"tree_single_A.001",
			"translation":[
				-0.49448898434638977,
				0.22830820083618164,
				-0.3609609305858612
			]
		},
		{
			"mesh":1,
			"name":"hill_single_C",
			"scale":[
				0.5019482970237732,
				0.5019482970237732,
				0.5019482970237732
			],
			"translation":[
				-0.44590261578559875,
				-0.07675133645534515,
				-0.32639041543006897
			]
		},
		{
			"mesh":0,
			"name":"tree_single_A.002",
			"translation":[
				0.09915786981582642,
				0.10260704904794693,
				0.45690929889678955
			]
		},
		{
			"mesh":2,
			"name":"rock_single_C",
			"translation":[
				-0.1933196783065796,
				-0.07530969381332397,
				-0.170954167842865
			]
		}
	],
	"materials":[
		{
			"name":"hexagons_medieval.023",
			"pbrMetallicRoughness":{
				"baseColorTexture":{
					"index":0
				},
				"metallicFactor":0,
				"roughnessFactor":0.5
			}
		},
		{
			"name":"hexagons_medieval.003",
			"pbrMetallicRoughness":{
				"baseColorTexture":{
					"index":1
				},
				"metallicFactor":0,
				"roughnessFactor":0.5
			}
		},
		{
			"name":"hexagons_medieval.020",
			"pbrMetallicRoughness":{
				"baseColorTexture":{
					"index":2
				},
				"metallicFactor":0,
				"roughnessFactor":0.5
			}
		}
	],
	"meshes":[
		{
			"name":"tree_single_A",
			"primitives":[
				{
					"attributes":{
						"POSITION":0,
						"NORMAL":1,
						"TEXCOORD_0":2
					},
					"indices":3,
					"material":0
				}
			]
		},
		{
			"name":"hill_single_C",
			"primitives":[
				{
					"attributes":{
						"POSITION":4,
						"NORMAL":5,
						"TEXCOORD_0":6
					},
					"indices":7,
					"material":1
				}
			]
		},
		{
			"name":"rock_single_C",
			"primitives":[
				{
					"attributes":{
						"POSITION":8,
						"NORMAL":9,
						"TEXCOORD_0":10
					},
					"indices":11,
					"material":2
				}
			]
		}
	],
	"textures":[
		{
			"sampler":0,
			"source":0
		},
		{
			"sampler":0,
			"source":0
		},
		{
			"sampler":0,
			"source":0
		}
	],
	"images":[
		{
			"mimeType":"image/png",
			"name":"hexagons_medieval",
			"uri":"hexagons_medieval.png"
		}
	],
	"accessors":[
		{
			"bufferView":0,
			"componentType":5126,
			"count":102,
			"max":[
				0.28644031286239624,
				1.0938414335250854,
				0.2452930510044098
			],
			"min":[
				-0.28753381967544556,
				-0.10260728746652603,
				-0.30171626806259155
			],
			"type":"VEC3"
		},
		{
			"bufferView":1,
			"componentType":5126,
			"count":102,
			"type":"VEC3"
		},
		{
			"bufferView":2,
			"componentType":5126,
			"count":102,
			"type":"VEC2"
		},
		{
			"bufferView":3,
			"componentType":5123,
			"count":150,
			"type":"SCALAR"
		},
		{
			"bufferView":4,
			"componentType":5126,
			"count":95,
			"max":[
				0.5132275819778442,
				0.5885831117630005,
				0.6190618276596069
			],
			"min":[
				-0.5111537575721741,
				0,
				-0.7058466672897339
			],
			"type":"VEC3"
		},
		{
			"bufferView":5,
			"componentType":5126,
			"count":95,
			"type":"VEC3"
		},
		{
			"bufferView":6,
			"componentType":5126,
			"count":95,
			"type":"VEC2"
		},
		{
			"bufferView":7,
			"componentType":5123,
			"count":180,
			"type":"SCALAR"
		},
		{
			"bufferView":8,
			"componentType":5126,
			"count":61,
			"max":[
				0.1586364507675171,
				0.19468727707862854,
				0.16218942403793335
			],
			"min":[
				-0.18526723980903625,
				-9.38796074478887e-05,
				-0.18201489746570587
			],
			"type":"VEC3"
		},
		{
			"bufferView":9,
			"componentType":5126,
			"count":61,
			"type":"VEC3"
		},
		{
			"bufferView":10,
			"componentType":5126,
			"count":61,
			"type":"VEC2"
		},
		{
			"bufferView":11,
			"componentType":5123,
			"count":120,
			"type":"SCALAR"
		}
	],
	"bufferViews":[
		{
			"buffer":0,
			"byteLength":1224,
			"byteOffset":0,
			"target":34962
		},
		{
			"buffer":0,
			"byteLength":1224,
			"byteOffset":1224,
			"target":34962
		},
		{
			"buffer":0,
			"byteLength":816,
			"byteOffset":2448,
			"target":34962
		},
		{
			"buffer":0,
			"byteLength":300,
			"byteOffset":3264,
			"target":34963
		},
		{
			"buffer":0,
			"byteLength":1140,
			"byteOffset":3564,
			"target":34962
		},
		{
			"buffer":0,
			"byteLength":1140,
			"byteOffset":4704,
			"target":34962
		},
		{
			"buffer":0,
			"byteLength":760,
			"byteOffset":5844,
			"target":34962
		},
		{
			"buffer":0,
			"byteLength":360,
			"byteOffset":6604,
			"target":34963
		},
		{
			"buffer":0,
			"byteLength":732,
			"byteOffset":6964,
			"target":34962
		},
		{
			"buffer":0,
			"byteLength":732,
			"byteOffset":7696,
			"target":34962
		},
		{
			"buffer":0,
			"byteLength":488,
			"byteOffset":8428,
			"target":34962
		},
		{
			"buffer":0,
			"byteLength":240,
			"byteOffset":8916,
			"target":34963
		}
	],
	"samplers":[
		{
			"magFilter":9729,
			"minFilter":9987
		}
	],
	"buffers":[
		{
			"byteLength":9156,
			"uri":"sparse_6_A.bin"
		}
	]
}
