{
	"asset":{
		"generator":"Khronos glTF Blender I/O v5.1.19",
		"version":"2.0"
	},
	"scene":0,
	"scenes":[
		{
			"name":"Scene",
			"nodes":[
				0,
				1,
				2,
				3
			]
		}
	],
	"nodes":[
		{
			"mesh":0,
			"name":"hills_C",
			"scale":[
				0.5471948981285095,
				0.5471948981285095,
				0.5471948981285095
			],
			"translation":[
				0.49188244342803955,
				0.00011646860366454348,
				0.024701982736587524
			]
		},
		{
			"mesh":1,
			"name":"tree_single_B",
			"translation":[
				0.2230696678161621,
				0.10000007599592209,
				0.7124545574188232
			]
		},
		{
			"mesh":1,
			"name":"tree_single_B.001",
			"translation":[
				0.25943613052368164,
				0.10000007599592209,
				-0.49099236726760864
			]
		},
		{
			"mesh":1,
			"name":"tree_single_B.002",
			"translation":[
				-0.6723194122314453,
				0.09999983757734299,
				-0.4375024437904358
			]
		}
	],
	"materials":[
		{
			"name":"hexagons_medieval.007",
			"pbrMetallicRoughness":{
				"baseColorTexture":{
					"index":0
				},
				"metallicFactor":0,
				"roughnessFactor":0.5
			}
		},
		{
			"name":"hexagons_medieval.025",
			"pbrMetallicRoughness":{
				"baseColorTexture":{
					"index":1
				},
				"metallicFactor":0,
				"roughnessFactor":0.5
			}
		}
	],
	"meshes":[
		{
			"name":"hills_C",
			"primitives":[
				{
					"attributes":{
						"POSITION":0,
						"NORMAL":1,
						"TEXCOORD_0":2
					},
					"indices":3,
					"material":0
				}
			]
		},
		{
			"name":"tree_single_B",
			"primitives":[
				{
					"attributes":{
						"POSITION":4,
						"NORMAL":5,
						"TEXCOORD_0":6
					},
					"indices":7,
					"material":1
				}
			]
		}
	],
	"textures":[
		{
			"sampler":0,
			"source":0
		},
		{
			"sampler":0,
			"source":0
		}
	],
	"images":[
		{
			"mimeType":"image/png",
			"name":"hexagons_medieval",
			"uri":"hexagons_medieval.png"
		}
	],
	"accessors":[
		{
			"bufferView":0,
			"componentType":5126,
			"count":407,
			"max":[
				0.8499240279197693,
				0.5545855760574341,
				0.921440839767456
			],
			"min":[
				-0.6774048209190369,
				-0.00011646860366454348,
				-0.5521593689918518
			],
			"type":"VEC3"
		},
		{
			"bufferView":1,
			"componentType":5126,
			"count":407,
			"type":"VEC3"
		},
		{
			"bufferView":2,
			"componentType":5126,
			"count":407,
			"type":"VEC2"
		},
		{
			"bufferView":3,
			"componentType":5123,
			"count":714,
			"type":"SCALAR"
		},
		{
			"bufferView":4,
			"componentType":5126,
			"count":189,
			"max":[
				0.34244194626808167,
				1.1126774549484253,
				0.360063761472702
			],
			"min":[
				-0.34244003891944885,
				-0.09999983757734299,
				-0.3600638508796692
			],
			"type":"VEC3"
		},
		{
			"bufferView":5,
			"componentType":5126,
			"count":189,
			"type":"VEC3"
		},
		{
			"bufferView":6,
			"componentType":5126,
			"count":189,
			"type":"VEC2"
		},
		{
			"bufferView":7,
			"componentType":5123,
			"count":660,
			"type":"SCALAR"
		}
	],
	"bufferViews":[
		{
			"buffer":0,
			"byteLength":4884,
			"byteOffset":0,
			"target":34962
		},
		{
			"buffer":0,
			"byteLength":4884,
			"byteOffset":4884,
			"target":34962
		},
		{
			"buffer":0,
			"byteLength":3256,
			"byteOffset":9768,
			"target":34962
		},
		{
			"buffer":0,
			"byteLength":1428,
			"byteOffset":13024,
			"target":34963
		},
		{
			"buffer":0,
			"byteLength":2268,
			"byteOffset":14452,
			"target":34962
		},
		{
			"buffer":0,
			"byteLength":2268,
			"byteOffset":16720,
			"target":34962
		},
		{
			"buffer":0,
			"byteLength":1512,
			"byteOffset":18988,
			"target":34962
		},
		{
			"buffer":0,
			"byteLength":1320,
			"byteOffset":20500,
			"target":34963
		}
	],
	"samplers":[
		{
			"magFilter":9729,
			"minFilter":9987
		}
	],
	"buffers":[
		{
			"byteLength":21820,
			"uri":"sparse_2_B.bin"
		}
	]
}
