{
	"asset":{
		"generator":"Khronos glTF Blender I/O v5.1.19",
		"version":"2.0"
	},
	"scene":0,
	"scenes":[
		{
			"name":"Scene",
			"nodes":[
				0,
				1,
				2,
				3,
				4
			]
		}
	],
	"nodes":[
		{
			"mesh":0,
			"name":"rock_single_C",
			"scale":[
				2.9440157413482666,
				2.9440157413482666,
				2.9440157413482666
			],
			"translation":[
				0.32784193754196167,
				9.396901441505179e-05,
				0.27763521671295166
			]
		},
		{
			"mesh":1,
			"name":"rock_single_D",
			"scale":[
				4.000734329223633,
				4.000734329223633,
				4.000734329223633
			],
			"translation":[
				0.1329846978187561,
				0,
				-0.4170715808868408
			]
		},
		{
			"mesh":2,
			"name":"rock_single_A",
			"scale":[
				3.717564582824707,
				3.717564582824707,
				3.717564582824707
			],
			"translation":[
				-0.2289220094680786,
				-0.019222205504775047,
				0.2017238438129425
			]
		},
		{
			"mesh":3,
			"name":"rock_single_B",
			"scale":[
				2.263277530670166,
				2.263277530670166,
				2.263277530670166
			],
			"translation":[
				-0.24130159616470337,
				-0.03202417492866516,
				-0.11597485840320587
			]
		},
		{
			"mesh":4,
			"name":"hill_single_A",
			"scale":[
				0.8155112266540527,
				0.8155112266540527,
				0.8155112266540527
			],
			"translation":[
				-0.16031304001808167,
				0.09685231745243073,
				0.19230329990386963
			]
		}
	],
	"materials":[
		{
			"name":"hexagons_medieval.020",
			"pbrMetallicRoughness":{
				"baseColorTexture":{
					"index":0
				},
				"metallicFactor":0,
				"roughnessFactor":0.5
			}
		},
		{
			"name":"hexagons_medieval.021",
			"pbrMetallicRoughness":{
				"baseColorTexture":{
					"index":1
				},
				"metallicFactor":0,
				"roughnessFactor":0.5
			}
		},
		{
			"name":"hexagons_medieval.018",
			"pbrMetallicRoughness":{
				"baseColorTexture":{
					"index":2
				},
				"metallicFactor":0,
				"roughnessFactor":0.5
			}
		},
		{
			"name":"hexagons_medieval.019",
			"pbrMetallicRoughness":{
				"baseColorTexture":{
					"index":3
				},
				"metallicFactor":0,
				"roughnessFactor":0.5
			}
		},
		{
			"name":"hexagons_medieval.001",
			"pbrMetallicRoughness":{
				"baseColorTexture":{
					"index":4
				},
				"metallicFactor":0,
				"roughnessFactor":0.5
			}
		}
	],
	"meshes":[
		{
			"name":"rock_single_C",
			"primitives":[
				{
					"attributes":{
						"POSITION":0,
						"NORMAL":1,
						"TEXCOORD_0":2
					},
					"indices":3,
					"material":0
				}
			]
		},
		{
			"name":"rock_single_D",
			"primitives":[
				{
					"attributes":{
						"POSITION":4,
						"NORMAL":5,
						"TEXCOORD_0":6
					},
					"indices":7,
					"material":1
				}
			]
		},
		{
			"name":"rock_single_A",
			"primitives":[
				{
					"attributes":{
						"POSITION":8,
						"NORMAL":9,
						"TEXCOORD_0":10
					},
					"indices":11,
					"material":2
				}
			]
		},
		{
			"name":"rock_single_B",
			"primitives":[
				{
					"attributes":{
						"POSITION":12,
						"NORMAL":13,
						"TEXCOORD_0":14
					},
					"indices":15,
					"material":3
				}
			]
		},
		{
			"name":"hill_single_A",
			"primitives":[
				{
					"attributes":{
						"POSITION":16,
						"NORMAL":17,
						"TEXCOORD_0":18
					},
					"indices":19,
					"material":4
				}
			]
		}
	],
	"textures":[
		{
			"sampler":0,
			"source":0
		},
		{
			"sampler":0,
			"source":0
		},
		{
			"sampler":0,
			"source":0
		},
		{
			"sampler":0,
			"source":0
		},
		{
			"sampler":0,
			"source":0
		}
	],
	"images":[
		{
			"mimeType":"image/png",
			"name":"hexagons_medieval",
			"uri":"hexagons_medieval.png"
		}
	],
	"accessors":[
		{
			"bufferView":0,
			"componentType":5126,
			"count":61,
			"max":[
				0.1586364507675171,
				0.19468727707862854,
				0.16218942403793335
			],
			"min":[
				-0.18526723980903625,
				-9.38796074478887e-05,
				-0.18201489746570587
			],
			"type":"VEC3"
		},
		{
			"bufferView":1,
			"componentType":5126,
			"count":61,
			"type":"VEC3"
		},
		{
			"bufferView":2,
			"componentType":5126,
			"count":61,
			"type":"VEC2"
		},
		{
			"bufferView":3,
			"componentType":5123,
			"count":120,
			"type":"SCALAR"
		},
		{
			"bufferView":4,
			"componentType":5126,
			"count":38,
			"max":[
				0.14463868737220764,
				0.16293124854564667,
				0.12004894018173218
			],
			"min":[
				-0.14197711646556854,
				-9.681238033465434e-10,
				-0.12970057129859924
			],
			"type":"VEC3"
		},
		{
			"bufferView":5,
			"componentType":5126,
			"count":38,
			"type":"VEC3"
		},
		{
			"bufferView":6,
			"componentType":5126,
			"count":38,
			"type":"VEC2"
		},
		{
			"bufferView":7,
			"componentType":5123,
			"count":66,
			"type":"SCALAR"
		},
		{
			"bufferView":8,
			"componentType":5126,
			"count":35,
			"max":[
				0.14910902082920074,
				0.06930101662874222,
				0.12683971226215363
			],
			"min":[
				-0.14910900592803955,
				0,
				-0.15678249299526215
			],
			"type":"VEC3"
		},
		{
			"bufferView":9,
			"componentType":5126,
			"count":35,
			"type":"VEC3"
		},
		{
			"bufferView":10,
			"componentType":5126,
			"count":35,
			"type":"VEC2"
		},
		{
			"bufferView":11,
			"componentType":5123,
			"count":54,
			"type":"SCALAR"
		},
		{
			"bufferView":12,
			"componentType":5126,
			"count":46,
			"max":[
				0.14463868737220764,
				0.13458546996116638,
				0.12174663692712784
			],
			"min":[
				-0.14197711646556854,
				-9.681238033465434e-10,
				-0.12800288200378418
			],
			"type":"VEC3"
		},
		{
			"bufferView":13,
			"componentType":5126,
			"count":46,
			"type":"VEC3"
		},
		{
			"bufferView":14,
			"componentType":5126,
			"count":46,
			"type":"VEC2"
		},
		{
			"bufferView":15,
			"componentType":5123,
			"count":78,
			"type":"SCALAR"
		},
		{
			"bufferView":16,
			"componentType":5126,
			"count":93,
			"max":[
				0.5911246538162231,
				0.3072676658630371,
				0.4076184034347534
			],
			"min":[
				-0.5187833905220032,
				0,
				-0.40169641375541687
			],
			"type":"VEC3"
		},
		{
			"bufferView":17,
			"componentType":5126,
			"count":93,
			"type":"VEC3"
		},
		{
			"bufferView":18,
			"componentType":5126,
			"count":93,
			"type":"VEC2"
		},
		{
			"bufferView":19,
			"componentType":5123,
			"count":180,
			"type":"SCALAR"
		}
	],
	"bufferViews":[
		{
			"buffer":0,
			"byteLength":732,
			"byteOffset":0,
			"target":34962
		},
		{
			"buffer":0,
			"byteLength":732,
			"byteOffset":732,
			"target":34962
		},
		{
			"buffer":0,
			"byteLength":488,
			"byteOffset":1464,
			"target":34962
		},
		{
			"buffer":0,
			"byteLength":240,
			"byteOffset":1952,
			"target":34963
		},
		{
			"buffer":0,
			"byteLength":456,
			"byteOffset":2192,
			"target":34962
		},
		{
			"buffer":0,
			"byteLength":456,
			"byteOffset":2648,
			"target":34962
		},
		{
			"buffer":0,
			"byteLength":304,
			"byteOffset":3104,
			"target":34962
		},
		{
			"buffer":0,
			"byteLength":132,
			"byteOffset":3408,
			"target":34963
		},
		{
			"buffer":0,
			"byteLength":420,
			"byteOffset":3540,
			"target":34962
		},
		{
			"buffer":0,
			"byteLength":420,
			"byteOffset":3960,
			"target":34962
		},
		{
			"buffer":0,
			"byteLength":280,
			"byteOffset":4380,
			"target":34962
		},
		{
			"buffer":0,
			"byteLength":108,
			"byteOffset":4660,
			"target":34963
		},
		{
			"buffer":0,
			"byteLength":552,
			"byteOffset":4768,
			"target":34962
		},
		{
			"buffer":0,
			"byteLength":552,
			"byteOffset":5320,
			"target":34962
		},
		{
			"buffer":0,
			"byteLength":368,
			"byteOffset":5872,
			"target":34962
		},
		{
			"buffer":0,
			"byteLength":156,
			"byteOffset":6240,
			"target":34963
		},
		{
			"buffer":0,
			"byteLength":1116,
			"byteOffset":6396,
			"target":34962
		},
		{
			"buffer":0,
			"byteLength":1116,
			"byteOffset":7512,
			"target":34962
		},
		{
			"buffer":0,
			"byteLength":744,
			"byteOffset":8628,
			"target":34962
		},
		{
			"buffer":0,
			"byteLength":360,
			"byteOffset":9372,
			"target":34963
		}
	],
	"samplers":[
		{
			"magFilter":9729,
			"minFilter":9987
		}
	],
	"buffers":[
		{
			"byteLength":9732,
			"uri":"sparse_4.bin"
		}
	]
}
