{
	"asset":{
		"generator":"Khronos glTF Blender I/O v5.1.19",
		"version":"2.0"
	},
	"scene":0,
	"scenes":[
		{
			"name":"Scene",
			"nodes":[
				0,
				1,
				2
			]
		}
	],
	"nodes":[
		{
			"mesh":0,
			"name":"tree_single_A",
			"translation":[
				-0.3861696124076843,
				0.10260776430368423,
				-0.35560721158981323
			]
		},
		{
			"mesh":0,
			"name":"tree_single_A.001",
			"translation":[
				0.3304350972175598,
				0.10260704904794693,
				0.5635955333709717
			]
		},
		{
			"mesh":1,
			"name":"rock_single_D",
			"translation":[
				0.34678274393081665,
				0,
				-0.548628568649292
			]
		}
	],
	"materials":[
		{
			"name":"hexagons_medieval.023",
			"pbrMetallicRoughness":{
				"baseColorTexture":{
					"index":0
				},
				"metallicFactor":0,
				"roughnessFactor":0.5
			}
		},
		{
			"name":"hexagons_medieval.021",
			"pbrMetallicRoughness":{
				"baseColorTexture":{
					"index":1
				},
				"metallicFactor":0,
				"roughnessFactor":0.5
			}
		}
	],
	"meshes":[
		{
			"name":"tree_single_A",
			"primitives":[
				{
					"attributes":{
						"POSITION":0,
						"NORMAL":1,
						"TEXCOORD_0":2
					},
					"indices":3,
					"material":0
				}
			]
		},
		{
			"name":"rock_single_D",
			"primitives":[
				{
					"attributes":{
						"POSITION":4,
						"NORMAL":5,
						"TEXCOORD_0":6
					},
					"indices":7,
					"material":1
				}
			]
		}
	],
	"textures":[
		{
			"sampler":0,
			"source":0
		},
		{
			"sampler":0,
			"source":0
		}
	],
	"images":[
		{
			"mimeType":"image/png",
			"name":"hexagons_medieval",
			"uri":"hexagons_medieval.png"
		}
	],
	"accessors":[
		{
			"bufferView":0,
			"componentType":5126,
			"count":102,
			"max":[
				0.28644031286239624,
				1.0938414335250854,
				0.2452930510044098
			],
			"min":[
				-0.28753381967544556,
				-0.10260728746652603,
				-0.30171626806259155
			],
			"type":"VEC3"
		},
		{
			"bufferView":1,
			"componentType":5126,
			"count":102,
			"type":"VEC3"
		},
		{
			"bufferView":2,
			"componentType":5126,
			"count":102,
			"type":"VEC2"
		},
		{
			"bufferView":3,
			"componentType":5123,
			"count":150,
			"type":"SCALAR"
		},
		{
			"bufferView":4,
			"componentType":5126,
			"count":38,
			"max":[
				0.14463868737220764,
				0.16293124854564667,
				0.12004894018173218
			],
			"min":[
				-0.14197711646556854,
				-9.681238033465434e-10,
				-0.12970057129859924
			],
			"type":"VEC3"
		},
		{
			"bufferView":5,
			"componentType":5126,
			"count":38,
			"type":"VEC3"
		},
		{
			"bufferView":6,
			"componentType":5126,
			"count":38,
			"type":"VEC2"
		},
		{
			"bufferView":7,
			"componentType":5123,
			"count":66,
			"type":"SCALAR"
		}
	],
	"bufferViews":[
		{
			"buffer":0,
			"byteLength":1224,
			"byteOffset":0,
			"target":34962
		},
		{
			"buffer":0,
			"byteLength":1224,
			"byteOffset":1224,
			"target":34962
		},
		{
			"buffer":0,
			"byteLength":816,
			"byteOffset":2448,
			"target":34962
		},
		{
			"buffer":0,
			"byteLength":300,
			"byteOffset":3264,
			"target":34963
		},
		{
			"buffer":0,
			"byteLength":456,
			"byteOffset":3564,
			"target":34962
		},
		{
			"buffer":0,
			"byteLength":456,
			"byteOffset":4020,
			"target":34962
		},
		{
			"buffer":0,
			"byteLength":304,
			"byteOffset":4476,
			"target":34962
		},
		{
			"buffer":0,
			"byteLength":132,
			"byteOffset":4780,
			"target":34963
		}
	],
	"samplers":[
		{
			"magFilter":9729,
			"minFilter":9987
		}
	],
	"buffers":[
		{
			"byteLength":4912,
			"uri":"sparse_1_A.bin"
		}
	]
}
