{
	"asset":{
		"generator":"Khronos glTF Blender I/O v5.1.19",
		"version":"2.0"
	},
	"scene":0,
	"scenes":[
		{
			"name":"Scene",
			"nodes":[
				0,
				1,
				2,
				3
			]
		}
	],
	"nodes":[
		{
			"mesh":0,
			"name":"tree_single_A",
			"translation":[
				-0.33569151163101196,
				0.10260740667581558,
				0.26956605911254883
			]
		},
		{
			"mesh":1,
			"name":"hills_C",
			"scale":[
				0.5471948981285095,
				0.5471948981285095,
				0.5471948981285095
			],
			"translation":[
				0.49188244342803955,
				0.00011646860366454348,
				0.024701982736587524
			]
		},
		{
			"mesh":0,
			"name":"tree_single_A.001",
			"translation":[
				-0.41699403524398804,
				0.10260728746652603,
				-0.3024613857269287
			]
		},
		{
			"mesh":0,
			"name":"tree_single_A.002",
			"translation":[
				0.287031888961792,
				0.10260728746652603,
				-0.6594593524932861
			]
		}
	],
	"materials":[
		{
			"name":"hexagons_medieval.023",
			"pbrMetallicRoughness":{
				"baseColorTexture":{
					"index":0
				},
				"metallicFactor":0,
				"roughnessFactor":0.5
			}
		},
		{
			"name":"hexagons_medieval.007",
			"pbrMetallicRoughness":{
				"baseColorTexture":{
					"index":1
				},
				"metallicFactor":0,
				"roughnessFactor":0.5
			}
		}
	],
	"meshes":[
		{
			"name":"tree_single_A",
			"primitives":[
				{
					"attributes":{
						"POSITION":0,
						"NORMAL":1,
						"TEXCOORD_0":2
					},
					"indices":3,
					"material":0
				}
			]
		},
		{
			"name":"hills_C",
			"primitives":[
				{
					"attributes":{
						"POSITION":4,
						"NORMAL":5,
						"TEXCOORD_0":6
					},
					"indices":7,
					"material":1
				}
			]
		}
	],
	"textures":[
		{
			"sampler":0,
			"source":0
		},
		{
			"sampler":0,
			"source":0
		}
	],
	"images":[
		{
			"mimeType":"image/png",
			"name":"hexagons_medieval",
			"uri":"hexagons_medieval.png"
		}
	],
	"accessors":[
		{
			"bufferView":0,
			"componentType":5126,
			"count":102,
			"max":[
				0.28644031286239624,
				1.0938414335250854,
				0.2452930510044098
			],
			"min":[
				-0.28753381967544556,
				-0.10260728746652603,
				-0.30171626806259155
			],
			"type":"VEC3"
		},
		{
			"bufferView":1,
			"componentType":5126,
			"count":102,
			"type":"VEC3"
		},
		{
			"bufferView":2,
			"componentType":5126,
			"count":102,
			"type":"VEC2"
		},
		{
			"bufferView":3,
			"componentType":5123,
			"count":150,
			"type":"SCALAR"
		},
		{
			"bufferView":4,
			"componentType":5126,
			"count":407,
			"max":[
				0.8499240279197693,
				0.5545855760574341,
				0.921440839767456
			],
			"min":[
				-0.6774048209190369,
				-0.00011646860366454348,
				-0.5521593689918518
			],
			"type":"VEC3"
		},
		{
			"bufferView":5,
			"componentType":5126,
			"count":407,
			"type":"VEC3"
		},
		{
			"bufferView":6,
			"componentType":5126,
			"count":407,
			"type":"VEC2"
		},
		{
			"bufferView":7,
			"componentType":5123,
			"count":714,
			"type":"SCALAR"
		}
	],
	"bufferViews":[
		{
			"buffer":0,
			"byteLength":1224,
			"byteOffset":0,
			"target":34962
		},
		{
			"buffer":0,
			"byteLength":1224,
			"byteOffset":1224,
			"target":34962
		},
		{
			"buffer":0,
			"byteLength":816,
			"byteOffset":2448,
			"target":34962
		},
		{
			"buffer":0,
			"byteLength":300,
			"byteOffset":3264,
			"target":34963
		},
		{
			"buffer":0,
			"byteLength":4884,
			"byteOffset":3564,
			"target":34962
		},
		{
			"buffer":0,
			"byteLength":4884,
			"byteOffset":8448,
			"target":34962
		},
		{
			"buffer":0,
			"byteLength":3256,
			"byteOffset":13332,
			"target":34962
		},
		{
			"buffer":0,
			"byteLength":1428,
			"byteOffset":16588,
			"target":34963
		}
	],
	"samplers":[
		{
			"magFilter":9729,
			"minFilter":9987
		}
	],
	"buffers":[
		{
			"byteLength":18016,
			"uri":"sparse_2_A.bin"
		}
	]
}
