{
	"asset":{
		"generator":"Khronos glTF Blender I/O v5.1.19",
		"version":"2.0"
	},
	"scene":0,
	"scenes":[
		{
			"name":"Scene",
			"nodes":[
				0,
				1,
				2,
				3
			]
		}
	],
	"nodes":[
		{
			"mesh":0,
			"name":"hills_A"
		},
		{
			"mesh":1,
			"name":"tree_single_B",
			"rotation":[
				0,
				0.0009297422366216779,
				0,
				1
			],
			"scale":[
				0.8227155208587646,
				0.8227155208587646,
				0.8227156400680542
			],
			"translation":[
				-0.37577223777770996,
				0.5104224681854248,
				-0.4753190875053406
			]
		},
		{
			"mesh":1,
			"name":"tree_single_B.001",
			"rotation":[
				0,
				0.0006442895974032581,
				0,
				1
			],
			"scale":[
				0.979744553565979,
				0.9797446131706238,
				0.9797444343566895
			],
			"translation":[
				0.4247210919857025,
				0.734652578830719,
				0.26372426748275757
			]
		},
		{
			"mesh":1,
			"name":"tree_single_B.002",
			"scale":[
				0.5901493430137634,
				0.5901493430137634,
				0.5901493430137634
			],
			"translation":[
				0.17153213918209076,
				0.03864864259958267,
				0.8574023842811584
			]
		}
	],
	"materials":[
		{
			"name":"hexagons_medieval.004",
			"pbrMetallicRoughness":{
				"baseColorTexture":{
					"index":0
				},
				"metallicFactor":0,
				"roughnessFactor":0.5
			}
		},
		{
			"name":"hexagons_medieval.025",
			"pbrMetallicRoughness":{
				"baseColorTexture":{
					"index":1
				},
				"metallicFactor":0,
				"roughnessFactor":0.5
			}
		}
	],
	"meshes":[
		{
			"name":"hills_A",
			"primitives":[
				{
					"attributes":{
						"POSITION":0,
						"NORMAL":1,
						"TEXCOORD_0":2
					},
					"indices":3,
					"material":0
				}
			]
		},
		{
			"name":"tree_single_B",
			"primitives":[
				{
					"attributes":{
						"POSITION":4,
						"NORMAL":5,
						"TEXCOORD_0":6
					},
					"indices":7,
					"material":1
				}
			]
		}
	],
	"textures":[
		{
			"sampler":0,
			"source":0
		},
		{
			"sampler":0,
			"source":0
		}
	],
	"images":[
		{
			"mimeType":"image/png",
			"name":"hexagons_medieval",
			"uri":"hexagons_medieval.png"
		}
	],
	"accessors":[
		{
			"bufferView":0,
			"componentType":5126,
			"count":622,
			"max":[
				0.9340779185295105,
				0.7941571474075317,
				0.9037846326828003
			],
			"min":[
				-0.8212661743164062,
				0,
				-0.8334367275238037
			],
			"type":"VEC3"
		},
		{
			"bufferView":1,
			"componentType":5126,
			"count":622,
			"type":"VEC3"
		},
		{
			"bufferView":2,
			"componentType":5126,
			"count":622,
			"type":"VEC2"
		},
		{
			"bufferView":3,
			"componentType":5123,
			"count":1149,
			"type":"SCALAR"
		},
		{
			"bufferView":4,
			"componentType":5126,
			"count":189,
			"max":[
				0.34244194626808167,
				1.1126774549484253,
				0.360063761472702
			],
			"min":[
				-0.34244003891944885,
				-0.09999983757734299,
				-0.3600638508796692
			],
			"type":"VEC3"
		},
		{
			"bufferView":5,
			"componentType":5126,
			"count":189,
			"type":"VEC3"
		},
		{
			"bufferView":6,
			"componentType":5126,
			"count":189,
			"type":"VEC2"
		},
		{
			"bufferView":7,
			"componentType":5123,
			"count":660,
			"type":"SCALAR"
		}
	],
	"bufferViews":[
		{
			"buffer":0,
			"byteLength":7464,
			"byteOffset":0,
			"target":34962
		},
		{
			"buffer":0,
			"byteLength":7464,
			"byteOffset":7464,
			"target":34962
		},
		{
			"buffer":0,
			"byteLength":4976,
			"byteOffset":14928,
			"target":34962
		},
		{
			"buffer":0,
			"byteLength":2298,
			"byteOffset":19904,
			"target":34963
		},
		{
			"buffer":0,
			"byteLength":2268,
			"byteOffset":22204,
			"target":34962
		},
		{
			"buffer":0,
			"byteLength":2268,
			"byteOffset":24472,
			"target":34962
		},
		{
			"buffer":0,
			"byteLength":1512,
			"byteOffset":26740,
			"target":34962
		},
		{
			"buffer":0,
			"byteLength":1320,
			"byteOffset":28252,
			"target":34963
		}
	],
	"samplers":[
		{
			"magFilter":9729,
			"minFilter":9987
		}
	],
	"buffers":[
		{
			"byteLength":29572,
			"uri":"dense_2_B.bin"
		}
	]
}
