{
	"asset":{
		"generator":"Khronos glTF Blender I/O v5.1.19",
		"version":"2.0"
	},
	"scene":0,
	"scenes":[
		{
			"name":"Scene",
			"nodes":[
				0,
				1,
				2,
				3,
				4,
				5,
				6
			]
		}
	],
	"nodes":[
		{
			"mesh":0,
			"name":"mountain_B_grass",
			"translation":[
				0.08202573657035828,
				0,
				-0.06806278228759766
			]
		},
		{
			"mesh":1,
			"name":"tree_single_B",
			"scale":[
				0.46675360202789307,
				0.46675360202789307,
				0.46675360202789307
			],
			"translation":[
				-0.433184951543808,
				0.7753098011016846,
				-0.49381375312805176
			]
		},
		{
			"mesh":1,
			"name":"tree_single_B.001",
			"scale":[
				0.59123694896698,
				0.59123694896698,
				0.59123694896698
			],
			"translation":[
				0.2738533318042755,
				1.8569002151489258,
				-0.30717623233795166
			]
		},
		{
			"mesh":1,
			"name":"tree_single_B.002",
			"scale":[
				0.8181012868881226,
				0.8181012868881226,
				0.8181012868881226
			],
			"translation":[
				-0.344713419675827,
				1.1924864053726196,
				-0.10392305999994278
			]
		},
		{
			"mesh":1,
			"name":"tree_single_B.003",
			"scale":[
				0.6795399785041809,
				0.6795399785041809,
				0.6795399785041809
			],
			"translation":[
				-0.07356773316860199,
				0.8219078183174133,
				0.32032540440559387
			]
		},
		{
			"mesh":1,
			"name":"tree_single_B.004",
			"scale":[
				0.5927416682243347,
				0.5927416682243347,
				0.5927416682243347
			],
			"translation":[
				0.6417934894561768,
				1.0814783573150635,
				0.28057557344436646
			]
		},
		{
			"mesh":1,
			"name":"tree_single_B.005",
			"scale":[
				0.7343626618385315,
				0.7343626618385315,
				0.7343626618385315
			],
			"translation":[
				-0.6523658037185669,
				0.732318103313446,
				0.1665993183851242
			]
		}
	],
	"materials":[
		{
			"name":"hexagons_medieval.013",
			"pbrMetallicRoughness":{
				"baseColorTexture":{
					"index":0
				},
				"metallicFactor":0,
				"roughnessFactor":0.5
			}
		},
		{
			"name":"hexagons_medieval.025",
			"pbrMetallicRoughness":{
				"baseColorTexture":{
					"index":1
				},
				"metallicFactor":0,
				"roughnessFactor":0.5
			}
		}
	],
	"meshes":[
		{
			"name":"mountain_B_grass",
			"primitives":[
				{
					"attributes":{
						"POSITION":0,
						"NORMAL":1,
						"TEXCOORD_0":2
					},
					"indices":3,
					"material":0
				}
			]
		},
		{
			"name":"tree_single_B",
			"primitives":[
				{
					"attributes":{
						"POSITION":4,
						"NORMAL":5,
						"TEXCOORD_0":6
					},
					"indices":7,
					"material":1
				}
			]
		}
	],
	"textures":[
		{
			"sampler":0,
			"source":0
		},
		{
			"sampler":0,
			"source":0
		}
	],
	"images":[
		{
			"mimeType":"image/png",
			"name":"hexagons_medieval",
			"uri":"hexagons_medieval.png"
		}
	],
	"accessors":[
		{
			"bufferView":0,
			"componentType":5126,
			"count":435,
			"max":[
				0.9132055044174194,
				1.836353063583374,
				0.9421151876449585
			],
			"min":[
				-0.887812614440918,
				-5.960464477539063e-08,
				-0.9340556859970093
			],
			"type":"VEC3"
		},
		{
			"bufferView":1,
			"componentType":5126,
			"count":435,
			"type":"VEC3"
		},
		{
			"bufferView":2,
			"componentType":5126,
			"count":435,
			"type":"VEC2"
		},
		{
			"bufferView":3,
			"componentType":5123,
			"count":864,
			"type":"SCALAR"
		},
		{
			"bufferView":4,
			"componentType":5126,
			"count":189,
			"max":[
				0.34244194626808167,
				1.1126774549484253,
				0.360063761472702
			],
			"min":[
				-0.34244003891944885,
				-0.09999983757734299,
				-0.3600638508796692
			],
			"type":"VEC3"
		},
		{
			"bufferView":5,
			"componentType":5126,
			"count":189,
			"type":"VEC3"
		},
		{
			"bufferView":6,
			"componentType":5126,
			"count":189,
			"type":"VEC2"
		},
		{
			"bufferView":7,
			"componentType":5123,
			"count":660,
			"type":"SCALAR"
		}
	],
	"bufferViews":[
		{
			"buffer":0,
			"byteLength":5220,
			"byteOffset":0,
			"target":34962
		},
		{
			"buffer":0,
			"byteLength":5220,
			"byteOffset":5220,
			"target":34962
		},
		{
			"buffer":0,
			"byteLength":3480,
			"byteOffset":10440,
			"target":34962
		},
		{
			"buffer":0,
			"byteLength":1728,
			"byteOffset":13920,
			"target":34963
		},
		{
			"buffer":0,
			"byteLength":2268,
			"byteOffset":15648,
			"target":34962
		},
		{
			"buffer":0,
			"byteLength":2268,
			"byteOffset":17916,
			"target":34962
		},
		{
			"buffer":0,
			"byteLength":1512,
			"byteOffset":20184,
			"target":34962
		},
		{
			"buffer":0,
			"byteLength":1320,
			"byteOffset":21696,
			"target":34963
		}
	],
	"samplers":[
		{
			"magFilter":9729,
			"minFilter":9987
		}
	],
	"buffers":[
		{
			"byteLength":23016,
			"uri":"dense_10_B.bin"
		}
	]
}
