{
	"asset":{
		"generator":"Khronos glTF Blender I/O v5.1.19",
		"version":"2.0"
	},
	"scene":0,
	"scenes":[
		{
			"name":"Scene",
			"nodes":[
				0
			]
		}
	],
	"nodes":[
		{
			"mesh":0,
			"name":"mountain_C_grass_trees"
		}
	],
	"materials":[
		{
			"name":"hexagons_medieval.049",
			"pbrMetallicRoughness":{
				"baseColorTexture":{
					"index":0
				},
				"metallicFactor":0,
				"roughnessFactor":0.5
			}
		}
	],
	"meshes":[
		{
			"name":"mountain_C_grass_trees",
			"primitives":[
				{
					"attributes":{
						"POSITION":0,
						"NORMAL":1,
						"TEXCOORD_0":2
					},
					"indices":3,
					"material":0
				}
			]
		}
	],
	"textures":[
		{
			"sampler":0,
			"source":0
		}
	],
	"images":[
		{
			"mimeType":"image/png",
			"name":"hexagons_medieval",
			"uri":"hexagons_medieval.png"
		}
	],
	"accessors":[
		{
			"bufferView":0,
			"componentType":5126,
			"count":1271,
			"max":[
				0.9073365330696106,
				2.112415075302124,
				1.005179524421692
			],
			"min":[
				-0.8512817621231079,
				1.341104507446289e-07,
				-1.0178070068359375
			],
			"type":"VEC3"
		},
		{
			"bufferView":1,
			"componentType":5126,
			"count":1271,
			"type":"VEC3"
		},
		{
			"bufferView":2,
			"componentType":5126,
			"count":1271,
			"type":"VEC2"
		},
		{
			"bufferView":3,
			"componentType":5123,
			"count":2250,
			"type":"SCALAR"
		}
	],
	"bufferViews":[
		{
			"buffer":0,
			"byteLength":15252,
			"byteOffset":0,
			"target":34962
		},
		{
			"buffer":0,
			"byteLength":15252,
			"byteOffset":15252,
			"target":34962
		},
		{
			"buffer":0,
			"byteLength":10168,
			"byteOffset":30504,
			"target":34962
		},
		{
			"buffer":0,
			"byteLength":4500,
			"byteOffset":40672,
			"target":34963
		}
	],
	"samplers":[
		{
			"magFilter":9729,
			"minFilter":9987
		}
	],
	"buffers":[
		{
			"byteLength":45172,
			"uri":"dense_13_A.bin"
		}
	]
}
