{
	"asset":{
		"generator":"Khronos glTF Blender I/O v5.1.19",
		"version":"2.0"
	},
	"scene":0,
	"scenes":[
		{
			"name":"Scene",
			"nodes":[
				0,
				1,
				2,
				3,
				4
			]
		}
	],
	"nodes":[
		{
			"mesh":0,
			"name":"mountain_A_grass"
		},
		{
			"mesh":1,
			"name":"tree_single_B",
			"rotation":[
				-0.046254634857177734,
				0,
				0,
				0.9989296793937683
			],
			"scale":[
				0.5,
				0.5,
				0.5
			],
			"translation":[
				-0.3962990939617157,
				1.2530405521392822,
				-0.3651440441608429
			]
		},
		{
			"mesh":1,
			"name":"tree_single_B.001",
			"rotation":[
				0,
				0,
				-0.0632491260766983,
				0.9979978799819946
			],
			"translation":[
				0.6823666095733643,
				1.0499821901321411,
				0.4238739311695099
			]
		},
		{
			"mesh":1,
			"name":"tree_single_B.002",
			"scale":[
				0.669884979724884,
				0.669884979724884,
				0.6698849201202393
			],
			"translation":[
				0.0911925882101059,
				1.5205488204956055,
				-0.03795795515179634
			]
		},
		{
			"mesh":1,
			"name":"tree_single_B.003",
			"rotation":[
				-0.046254757791757584,
				0,
				0,
				0.9989296793937683
			],
			"scale":[
				0.7092357277870178,
				0.7092357873916626,
				0.7092357873916626
			],
			"translation":[
				-0.4942140579223633,
				1.2982494831085205,
				0.12198168784379959
			]
		}
	],
	"materials":[
		{
			"name":"hexagons_medieval.010",
			"pbrMetallicRoughness":{
				"baseColorTexture":{
					"index":0
				},
				"metallicFactor":0,
				"roughnessFactor":0.5
			}
		},
		{
			"name":"hexagons_medieval.025",
			"pbrMetallicRoughness":{
				"baseColorTexture":{
					"index":1
				},
				"metallicFactor":0,
				"roughnessFactor":0.5
			}
		}
	],
	"meshes":[
		{
			"name":"mountain_A_grass",
			"primitives":[
				{
					"attributes":{
						"POSITION":0,
						"NORMAL":1,
						"TEXCOORD_0":2
					},
					"indices":3,
					"material":0
				}
			]
		},
		{
			"name":"tree_single_B",
			"primitives":[
				{
					"attributes":{
						"POSITION":4,
						"NORMAL":5,
						"TEXCOORD_0":6
					},
					"indices":7,
					"material":1
				}
			]
		}
	],
	"textures":[
		{
			"sampler":0,
			"source":0
		},
		{
			"sampler":0,
			"source":0
		}
	],
	"images":[
		{
			"mimeType":"image/png",
			"name":"hexagons_medieval",
			"uri":"hexagons_medieval.png"
		}
	],
	"accessors":[
		{
			"bufferView":0,
			"componentType":5126,
			"count":435,
			"max":[
				0.9073365330696106,
				1.5009690523147583,
				0.9390947818756104
			],
			"min":[
				-0.893681526184082,
				1.043081283569336e-07,
				-0.9370760917663574
			],
			"type":"VEC3"
		},
		{
			"bufferView":1,
			"componentType":5126,
			"count":435,
			"type":"VEC3"
		},
		{
			"bufferView":2,
			"componentType":5126,
			"count":435,
			"type":"VEC2"
		},
		{
			"bufferView":3,
			"componentType":5123,
			"count":864,
			"type":"SCALAR"
		},
		{
			"bufferView":4,
			"componentType":5126,
			"count":189,
			"max":[
				0.34244194626808167,
				1.1126774549484253,
				0.360063761472702
			],
			"min":[
				-0.34244003891944885,
				-0.09999983757734299,
				-0.3600638508796692
			],
			"type":"VEC3"
		},
		{
			"bufferView":5,
			"componentType":5126,
			"count":189,
			"type":"VEC3"
		},
		{
			"bufferView":6,
			"componentType":5126,
			"count":189,
			"type":"VEC2"
		},
		{
			"bufferView":7,
			"componentType":5123,
			"count":660,
			"type":"SCALAR"
		}
	],
	"bufferViews":[
		{
			"buffer":0,
			"byteLength":5220,
			"byteOffset":0,
			"target":34962
		},
		{
			"buffer":0,
			"byteLength":5220,
			"byteOffset":5220,
			"target":34962
		},
		{
			"buffer":0,
			"byteLength":3480,
			"byteOffset":10440,
			"target":34962
		},
		{
			"buffer":0,
			"byteLength":1728,
			"byteOffset":13920,
			"target":34963
		},
		{
			"buffer":0,
			"byteLength":2268,
			"byteOffset":15648,
			"target":34962
		},
		{
			"buffer":0,
			"byteLength":2268,
			"byteOffset":17916,
			"target":34962
		},
		{
			"buffer":0,
			"byteLength":1512,
			"byteOffset":20184,
			"target":34962
		},
		{
			"buffer":0,
			"byteLength":1320,
			"byteOffset":21696,
			"target":34963
		}
	],
	"samplers":[
		{
			"magFilter":9729,
			"minFilter":9987
		}
	],
	"buffers":[
		{
			"byteLength":23016,
			"uri":"dense_7_B.bin"
		}
	]
}
