{
	"asset":{
		"generator":"Khronos glTF Blender I/O v5.1.19",
		"version":"2.0"
	},
	"scene":0,
	"scenes":[
		{
			"name":"Scene",
			"nodes":[
				0,
				1,
				2,
				3,
				4,
				5,
				6
			]
		}
	],
	"nodes":[
		{
			"mesh":0,
			"name":"hills_C"
		},
		{
			"mesh":1,
			"name":"tree_single_B",
			"rotation":[
				0,
				-0.00012564794451463968,
				0,
				1
			],
			"scale":[
				0.6771713495254517,
				0.6771714091300964,
				0.6771713495254517
			],
			"translation":[
				0.4167447090148926,
				0.46481332182884216,
				0.059654220938682556
			]
		},
		{
			"mesh":1,
			"name":"tree_single_B.001",
			"scale":[
				0.8025761246681213,
				0.8025761246681213,
				0.8025761246681213
			],
			"translation":[
				0.10608372092247009,
				0.053443506360054016,
				-0.41264840960502625
			]
		},
		{
			"mesh":1,
			"name":"tree_single_B.002",
			"scale":[
				0.7823247909545898,
				0.7823247909545898,
				0.7823247909545898
			],
			"translation":[
				-0.4478435516357422,
				0.008620627224445343,
				-0.06711950898170471
			]
		},
		{
			"mesh":1,
			"name":"tree_single_B.003",
			"scale":[
				0.6015032529830933,
				0.6015032529830933,
				0.6015032529830933
			],
			"translation":[
				-0.3489086627960205,
				-0.003842949867248535,
				-0.47455865144729614
			]
		},
		{
			"mesh":1,
			"name":"tree_single_B.004",
			"scale":[
				0.4856147766113281,
				0.4856147766113281,
				0.4856147766113281
			],
			"translation":[
				-0.7205556631088257,
				-0.06471896916627884,
				-0.3536279797554016
			]
		},
		{
			"mesh":1,
			"name":"tree_single_B.005",
			"scale":[
				0.941586434841156,
				0.941586434841156,
				0.941586434841156
			],
			"translation":[
				-0.044053927063941956,
				0.07617490738630295,
				-0.8478553295135498
			]
		}
	],
	"materials":[
		{
			"name":"hexagons_medieval.007",
			"pbrMetallicRoughness":{
				"baseColorTexture":{
					"index":0
				},
				"metallicFactor":0,
				"roughnessFactor":0.5
			}
		},
		{
			"name":"hexagons_medieval.025",
			"pbrMetallicRoughness":{
				"baseColorTexture":{
					"index":1
				},
				"metallicFactor":0,
				"roughnessFactor":0.5
			}
		}
	],
	"meshes":[
		{
			"name":"hills_C",
			"primitives":[
				{
					"attributes":{
						"POSITION":0,
						"NORMAL":1,
						"TEXCOORD_0":2
					},
					"indices":3,
					"material":0
				}
			]
		},
		{
			"name":"tree_single_B",
			"primitives":[
				{
					"attributes":{
						"POSITION":4,
						"NORMAL":5,
						"TEXCOORD_0":6
					},
					"indices":7,
					"material":1
				}
			]
		}
	],
	"textures":[
		{
			"sampler":0,
			"source":0
		},
		{
			"sampler":0,
			"source":0
		}
	],
	"images":[
		{
			"mimeType":"image/png",
			"name":"hexagons_medieval",
			"uri":"hexagons_medieval.png"
		}
	],
	"accessors":[
		{
			"bufferView":0,
			"componentType":5126,
			"count":407,
			"max":[
				0.8499240279197693,
				0.5545855760574341,
				0.921440839767456
			],
			"min":[
				-0.6774048209190369,
				-0.00011646860366454348,
				-0.5521593689918518
			],
			"type":"VEC3"
		},
		{
			"bufferView":1,
			"componentType":5126,
			"count":407,
			"type":"VEC3"
		},
		{
			"bufferView":2,
			"componentType":5126,
			"count":407,
			"type":"VEC2"
		},
		{
			"bufferView":3,
			"componentType":5123,
			"count":714,
			"type":"SCALAR"
		},
		{
			"bufferView":4,
			"componentType":5126,
			"count":189,
			"max":[
				0.34244194626808167,
				1.1126774549484253,
				0.360063761472702
			],
			"min":[
				-0.34244003891944885,
				-0.09999983757734299,
				-0.3600638508796692
			],
			"type":"VEC3"
		},
		{
			"bufferView":5,
			"componentType":5126,
			"count":189,
			"type":"VEC3"
		},
		{
			"bufferView":6,
			"componentType":5126,
			"count":189,
			"type":"VEC2"
		},
		{
			"bufferView":7,
			"componentType":5123,
			"count":660,
			"type":"SCALAR"
		}
	],
	"bufferViews":[
		{
			"buffer":0,
			"byteLength":4884,
			"byteOffset":0,
			"target":34962
		},
		{
			"buffer":0,
			"byteLength":4884,
			"byteOffset":4884,
			"target":34962
		},
		{
			"buffer":0,
			"byteLength":3256,
			"byteOffset":9768,
			"target":34962
		},
		{
			"buffer":0,
			"byteLength":1428,
			"byteOffset":13024,
			"target":34963
		},
		{
			"buffer":0,
			"byteLength":2268,
			"byteOffset":14452,
			"target":34962
		},
		{
			"buffer":0,
			"byteLength":2268,
			"byteOffset":16720,
			"target":34962
		},
		{
			"buffer":0,
			"byteLength":1512,
			"byteOffset":18988,
			"target":34962
		},
		{
			"buffer":0,
			"byteLength":1320,
			"byteOffset":20500,
			"target":34963
		}
	],
	"samplers":[
		{
			"magFilter":9729,
			"minFilter":9987
		}
	],
	"buffers":[
		{
			"byteLength":21820,
			"uri":"dense_4_B.bin"
		}
	]
}
