{
	"asset":{
		"generator":"Khronos glTF Blender I/O v5.1.19",
		"version":"2.0"
	},
	"scene":0,
	"scenes":[
		{
			"name":"Scene",
			"nodes":[
				0
			]
		}
	],
	"nodes":[
		{
			"mesh":0,
			"name":"hills_B_trees"
		}
	],
	"materials":[
		{
			"name":"hexagons_medieval.037",
			"pbrMetallicRoughness":{
				"baseColorTexture":{
					"index":0
				},
				"metallicFactor":0,
				"roughnessFactor":0.5
			}
		}
	],
	"meshes":[
		{
			"name":"hills_B_trees",
			"primitives":[
				{
					"attributes":{
						"POSITION":0,
						"NORMAL":1,
						"TEXCOORD_0":2
					},
					"indices":3,
					"material":0
				}
			]
		}
	],
	"textures":[
		{
			"sampler":0,
			"source":0
		}
	],
	"images":[
		{
			"mimeType":"image/png",
			"name":"hexagons_medieval",
			"uri":"hexagons_medieval.png"
		}
	],
	"accessors":[
		{
			"bufferView":0,
			"componentType":5126,
			"count":750,
			"max":[
				0.7030627131462097,
				1.369074821472168,
				0.7383113503456116
			],
			"min":[
				-0.7704500555992126,
				-9.38796074478887e-05,
				-0.885293185710907
			],
			"type":"VEC3"
		},
		{
			"bufferView":1,
			"componentType":5126,
			"count":750,
			"type":"VEC3"
		},
		{
			"bufferView":2,
			"componentType":5126,
			"count":750,
			"type":"VEC2"
		},
		{
			"bufferView":3,
			"componentType":5123,
			"count":1218,
			"type":"SCALAR"
		}
	],
	"bufferViews":[
		{
			"buffer":0,
			"byteLength":9000,
			"byteOffset":0,
			"target":34962
		},
		{
			"buffer":0,
			"byteLength":9000,
			"byteOffset":9000,
			"target":34962
		},
		{
			"buffer":0,
			"byteLength":6000,
			"byteOffset":18000,
			"target":34962
		},
		{
			"buffer":0,
			"byteLength":2436,
			"byteOffset":24000,
			"target":34963
		}
	],
	"samplers":[
		{
			"magFilter":9729,
			"minFilter":9987
		}
	],
	"buffers":[
		{
			"byteLength":26436,
			"uri":"dense_3_A.bin"
		}
	]
}
