{
	"asset":{
		"generator":"Khronos glTF Blender I/O v5.1.19",
		"version":"2.0"
	},
	"scene":0,
	"scenes":[
		{
			"name":"Scene",
			"nodes":[
				0,
				1,
				2,
				3,
				4,
				5,
				6,
				7
			]
		}
	],
	"nodes":[
		{
			"mesh":0,
			"name":"mountain_C_grass"
		},
		{
			"mesh":1,
			"name":"tree_single_B",
			"scale":[
				0.5618479251861572,
				0.5618479251861572,
				0.5618479251861572
			],
			"translation":[
				-0.6185997128486633,
				1.4253431558609009,
				0.005569262430071831
			]
		},
		{
			"mesh":1,
			"name":"tree_single_B.001",
			"scale":[
				0.661512017250061,
				0.661512017250061,
				0.661512017250061
			],
			"translation":[
				-0.06247731298208237,
				1.302706241607666,
				0.5500680804252625
			]
		},
		{
			"mesh":1,
			"name":"tree_single_B.002",
			"scale":[
				0.560732901096344,
				0.560732901096344,
				0.560732901096344
			],
			"translation":[
				-0.6825523376464844,
				0.6600606441497803,
				0.44913095235824585
			]
		},
		{
			"mesh":1,
			"name":"tree_single_B.003",
			"scale":[
				0.5990772247314453,
				0.5990772247314453,
				0.5990772247314453
			],
			"translation":[
				0.08430074155330658,
				1.2476952075958252,
				-0.09864060580730438
			]
		},
		{
			"mesh":1,
			"name":"tree_single_B.004",
			"scale":[
				0.6489162445068359,
				0.6489162445068359,
				0.6489162445068359
			],
			"translation":[
				0.0282096266746521,
				1.3296592235565186,
				-0.6168475151062012
			]
		},
		{
			"mesh":1,
			"name":"tree_single_B.005",
			"scale":[
				0.5973933339118958,
				0.5973933339118958,
				0.5973933339118958
			],
			"translation":[
				0.6559945940971375,
				0.6025782227516174,
				-0.2906898856163025
			]
		},
		{
			"mesh":1,
			"name":"tree_single_B.006",
			"scale":[
				0.2948766350746155,
				0.2948766350746155,
				0.2948766350746155
			],
			"translation":[
				-0.6210737228393555,
				0.7749332189559937,
				-0.4059853255748749
			]
		}
	],
	"materials":[
		{
			"name":"hexagons_medieval.016",
			"pbrMetallicRoughness":{
				"baseColorTexture":{
					"index":0
				},
				"metallicFactor":0,
				"roughnessFactor":0.5
			}
		},
		{
			"name":"hexagons_medieval.025",
			"pbrMetallicRoughness":{
				"baseColorTexture":{
					"index":1
				},
				"metallicFactor":0,
				"roughnessFactor":0.5
			}
		}
	],
	"meshes":[
		{
			"name":"mountain_C_grass",
			"primitives":[
				{
					"attributes":{
						"POSITION":0,
						"NORMAL":1,
						"TEXCOORD_0":2
					},
					"indices":3,
					"material":0
				}
			]
		},
		{
			"name":"tree_single_B",
			"primitives":[
				{
					"attributes":{
						"POSITION":4,
						"NORMAL":5,
						"TEXCOORD_0":6
					},
					"indices":7,
					"material":1
				}
			]
		}
	],
	"textures":[
		{
			"sampler":0,
			"source":0
		},
		{
			"sampler":0,
			"source":0
		}
	],
	"images":[
		{
			"mimeType":"image/png",
			"name":"hexagons_medieval",
			"uri":"hexagons_medieval.png"
		}
	],
	"accessors":[
		{
			"bufferView":0,
			"componentType":5126,
			"count":728,
			"max":[
				0.9073365330696106,
				1.5541561841964722,
				1.005179524421692
			],
			"min":[
				-0.8512817621231079,
				1.341104507446289e-07,
				-1.0178070068359375
			],
			"type":"VEC3"
		},
		{
			"bufferView":1,
			"componentType":5126,
			"count":728,
			"type":"VEC3"
		},
		{
			"bufferView":2,
			"componentType":5126,
			"count":728,
			"type":"VEC2"
		},
		{
			"bufferView":3,
			"componentType":5123,
			"count":1440,
			"type":"SCALAR"
		},
		{
			"bufferView":4,
			"componentType":5126,
			"count":189,
			"max":[
				0.34244194626808167,
				1.1126774549484253,
				0.360063761472702
			],
			"min":[
				-0.34244003891944885,
				-0.09999983757734299,
				-0.3600638508796692
			],
			"type":"VEC3"
		},
		{
			"bufferView":5,
			"componentType":5126,
			"count":189,
			"type":"VEC3"
		},
		{
			"bufferView":6,
			"componentType":5126,
			"count":189,
			"type":"VEC2"
		},
		{
			"bufferView":7,
			"componentType":5123,
			"count":660,
			"type":"SCALAR"
		}
	],
	"bufferViews":[
		{
			"buffer":0,
			"byteLength":8736,
			"byteOffset":0,
			"target":34962
		},
		{
			"buffer":0,
			"byteLength":8736,
			"byteOffset":8736,
			"target":34962
		},
		{
			"buffer":0,
			"byteLength":5824,
			"byteOffset":17472,
			"target":34962
		},
		{
			"buffer":0,
			"byteLength":2880,
			"byteOffset":23296,
			"target":34963
		},
		{
			"buffer":0,
			"byteLength":2268,
			"byteOffset":26176,
			"target":34962
		},
		{
			"buffer":0,
			"byteLength":2268,
			"byteOffset":28444,
			"target":34962
		},
		{
			"buffer":0,
			"byteLength":1512,
			"byteOffset":30712,
			"target":34962
		},
		{
			"buffer":0,
			"byteLength":1320,
			"byteOffset":32224,
			"target":34963
		}
	],
	"samplers":[
		{
			"magFilter":9729,
			"minFilter":9987
		}
	],
	"buffers":[
		{
			"byteLength":33544,
			"uri":"dense_13_B.bin"
		}
	]
}
