{
	"asset":{
		"generator":"Khronos glTF Blender I/O v5.1.19",
		"version":"2.0"
	},
	"scene":0,
	"scenes":[
		{
			"name":"Scene",
			"nodes":[
				0
			]
		}
	],
	"nodes":[
		{
			"mesh":0,
			"name":"hills_C_trees"
		}
	],
	"materials":[
		{
			"name":"hexagons_medieval.038",
			"pbrMetallicRoughness":{
				"baseColorTexture":{
					"index":0
				},
				"metallicFactor":0,
				"roughnessFactor":0.5
			}
		}
	],
	"meshes":[
		{
			"name":"hills_C_trees",
			"primitives":[
				{
					"attributes":{
						"POSITION":0,
						"NORMAL":1,
						"TEXCOORD_0":2
					},
					"indices":3,
					"material":0
				}
			]
		}
	],
	"textures":[
		{
			"sampler":0,
			"source":0
		}
	],
	"images":[
		{
			"mimeType":"image/png",
			"name":"hexagons_medieval",
			"uri":"hexagons_medieval.png"
		}
	],
	"accessors":[
		{
			"bufferView":0,
			"componentType":5126,
			"count":1165,
			"max":[
				0.8499240279197693,
				1.2748571634292603,
				0.921440839767456
			],
			"min":[
				-0.8465665578842163,
				-0.020484119653701782,
				-0.9777706265449524
			],
			"type":"VEC3"
		},
		{
			"bufferView":1,
			"componentType":5126,
			"count":1165,
			"type":"VEC3"
		},
		{
			"bufferView":2,
			"componentType":5126,
			"count":1165,
			"type":"VEC2"
		},
		{
			"bufferView":3,
			"componentType":5123,
			"count":1848,
			"type":"SCALAR"
		}
	],
	"bufferViews":[
		{
			"buffer":0,
			"byteLength":13980,
			"byteOffset":0,
			"target":34962
		},
		{
			"buffer":0,
			"byteLength":13980,
			"byteOffset":13980,
			"target":34962
		},
		{
			"buffer":0,
			"byteLength":9320,
			"byteOffset":27960,
			"target":34962
		},
		{
			"buffer":0,
			"byteLength":3696,
			"byteOffset":37280,
			"target":34963
		}
	],
	"samplers":[
		{
			"magFilter":9729,
			"minFilter":9987
		}
	],
	"buffers":[
		{
			"byteLength":40976,
			"uri":"dense_4_A.bin"
		}
	]
}
