{
	"asset":{
		"generator":"Khronos glTF Blender I/O v5.1.19",
		"version":"2.0"
	},
	"scene":0,
	"scenes":[
		{
			"name":"Scene",
			"nodes":[
				0,
				1,
				2,
				3
			]
		}
	],
	"nodes":[
		{
			"mesh":0,
			"name":"hills_B"
		},
		{
			"mesh":1,
			"name":"tree_single_B",
			"rotation":[
				0,
				-0.0010118758073076606,
				0,
				1
			],
			"scale":[
				0.883078932762146,
				0.8830788135528564,
				0.883078932762146
			],
			"translation":[
				0.1956476867198944,
				0.4112381041049957,
				-0.03384627401828766
			]
		},
		{
			"mesh":1,
			"name":"tree_single_B.001",
			"rotation":[
				0,
				-0.0006814172375015914,
				0,
				1
			],
			"scale":[
				0.7385708093643188,
				0.7385706901550293,
				0.7385708093643188
			],
			"translation":[
				-0.41924452781677246,
				0.32617250084877014,
				0.4208502173423767
			]
		},
		{
			"mesh":1,
			"name":"tree_single_B.002",
			"rotation":[
				0,
				-0.0011093734065070748,
				0,
				1
			],
			"scale":[
				0.7469346523284912,
				0.7469346523284912,
				0.7469346523284912
			],
			"translation":[
				0.16470514237880707,
				0.38173097372055054,
				-0.5770989656448364
			]
		}
	],
	"materials":[
		{
			"name":"hexagons_medieval.005",
			"pbrMetallicRoughness":{
				"baseColorTexture":{
					"index":0
				},
				"metallicFactor":0,
				"roughnessFactor":0.5
			}
		},
		{
			"name":"hexagons_medieval.025",
			"pbrMetallicRoughness":{
				"baseColorTexture":{
					"index":1
				},
				"metallicFactor":0,
				"roughnessFactor":0.5
			}
		}
	],
	"meshes":[
		{
			"name":"hills_B",
			"primitives":[
				{
					"attributes":{
						"POSITION":0,
						"NORMAL":1,
						"TEXCOORD_0":2
					},
					"indices":3,
					"material":0
				}
			]
		},
		{
			"name":"tree_single_B",
			"primitives":[
				{
					"attributes":{
						"POSITION":4,
						"NORMAL":5,
						"TEXCOORD_0":6
					},
					"indices":7,
					"material":1
				}
			]
		}
	],
	"textures":[
		{
			"sampler":0,
			"source":0
		},
		{
			"sampler":0,
			"source":0
		}
	],
	"images":[
		{
			"mimeType":"image/png",
			"name":"hexagons_medieval",
			"uri":"hexagons_medieval.png"
		}
	],
	"accessors":[
		{
			"bufferView":0,
			"componentType":5126,
			"count":381,
			"max":[
				0.7030627131462097,
				0.3659045100212097,
				0.7383113503456116
			],
			"min":[
				-0.7704500555992126,
				-9.38796074478887e-05,
				-0.885293185710907
			],
			"type":"VEC3"
		},
		{
			"bufferView":1,
			"componentType":5126,
			"count":381,
			"type":"VEC3"
		},
		{
			"bufferView":2,
			"componentType":5126,
			"count":381,
			"type":"VEC2"
		},
		{
			"bufferView":3,
			"componentType":5123,
			"count":678,
			"type":"SCALAR"
		},
		{
			"bufferView":4,
			"componentType":5126,
			"count":189,
			"max":[
				0.34244194626808167,
				1.1126774549484253,
				0.360063761472702
			],
			"min":[
				-0.34244003891944885,
				-0.09999983757734299,
				-0.3600638508796692
			],
			"type":"VEC3"
		},
		{
			"bufferView":5,
			"componentType":5126,
			"count":189,
			"type":"VEC3"
		},
		{
			"bufferView":6,
			"componentType":5126,
			"count":189,
			"type":"VEC2"
		},
		{
			"bufferView":7,
			"componentType":5123,
			"count":660,
			"type":"SCALAR"
		}
	],
	"bufferViews":[
		{
			"buffer":0,
			"byteLength":4572,
			"byteOffset":0,
			"target":34962
		},
		{
			"buffer":0,
			"byteLength":4572,
			"byteOffset":4572,
			"target":34962
		},
		{
			"buffer":0,
			"byteLength":3048,
			"byteOffset":9144,
			"target":34962
		},
		{
			"buffer":0,
			"byteLength":1356,
			"byteOffset":12192,
			"target":34963
		},
		{
			"buffer":0,
			"byteLength":2268,
			"byteOffset":13548,
			"target":34962
		},
		{
			"buffer":0,
			"byteLength":2268,
			"byteOffset":15816,
			"target":34962
		},
		{
			"buffer":0,
			"byteLength":1512,
			"byteOffset":18084,
			"target":34962
		},
		{
			"buffer":0,
			"byteLength":1320,
			"byteOffset":19596,
			"target":34963
		}
	],
	"samplers":[
		{
			"magFilter":9729,
			"minFilter":9987
		}
	],
	"buffers":[
		{
			"byteLength":20916,
			"uri":"dense_3_B.bin"
		}
	]
}
