{
	"asset":{
		"generator":"Khronos glTF Blender I/O v5.1.19",
		"version":"2.0"
	},
	"scene":0,
	"scenes":[
		{
			"name":"Scene",
			"nodes":[
				0,
				1,
				2,
				3,
				4,
				5,
				6,
				7,
				8,
				9,
				10,
				11,
				12,
				13
			]
		}
	],
	"nodes":[
		{
			"mesh":0,
			"name":"hex_river_A"
		},
		{
			"mesh":1,
			"name":"rock_single_B",
			"translation":[
				-0.8775888085365295,
				-0.015840493142604828,
				0.2742733657360077
			]
		},
		{
			"mesh":2,
			"name":"rock_single_C",
			"rotation":[
				0.20408952236175537,
				-0.11657842993736267,
				0.21909169852733612,
				0.9469718933105469
			],
			"scale":[
				1.3497542142868042,
				1.3497542142868042,
				1.3497542142868042
			],
			"translation":[
				-0.769331157207489,
				-0.15061214566230774,
				0.06993292272090912
			]
		},
		{
			"mesh":3,
			"name":"rock_single_D",
			"scale":[
				1.864753007888794,
				1.864753007888794,
				1.864753007888794
			],
			"translation":[
				-0.7492877840995789,
				-0.09999966621398926,
				-0.4008612632751465
			]
		},
		{
			"mesh":4,
			"name":"rock_single_E",
			"translation":[
				-0.6384029388427734,
				-0.09990602731704712,
				0.2485656589269638
			]
		},
		{
			"mesh":3,
			"name":"rock_single_D.001",
			"scale":[
				1.7896519899368286,
				1.7896519899368286,
				1.7896519899368286
			],
			"translation":[
				-0.808153510093689,
				-0.1137232780456543,
				0.3015943169593811
			]
		},
		{
			"mesh":2,
			"name":"rock_single_C.001",
			"translation":[
				-0.7462425827980042,
				-0.09990602731704712,
				-0.1576349437236786
			]
		},
		{
			"mesh":3,
			"name":"rock_single_D.002",
			"translation":[
				-0.9153711795806885,
				-0.09835183620452881,
				-0.0909733846783638
			]
		},
		{
			"mesh":1,
			"name":"rock_single_B.001",
			"rotation":[
				-0.2853547930717468,
				-0.8454378247261047,
				0.15770386159420013,
				0.4230095148086548
			],
			"translation":[
				-0.7885119915008545,
				0.011805517598986626,
				-0.06833070516586304
			]
		},
		{
			"mesh":5,
			"name":"rock_single_A",
			"scale":[
				0.23624873161315918,
				0.23624873161315918,
				0.23624873161315918
			],
			"translation":[
				0.15928128361701965,
				-0.1074371263384819,
				-0.07880604267120361
			]
		},
		{
			"mesh":6,
			"name":"waterlily_A",
			"translation":[
				0.7003533244132996,
				-0.09999978542327881,
				0.12748892605304718
			]
		},
		{
			"mesh":7,
			"name":"waterplant_B",
			"translation":[
				-0.4400593340396881,
				-0.0809597447514534,
				-0.3291305899620056
			]
		},
		{
			"mesh":8,
			"name":"waterplant_C",
			"translation":[
				-0.5958157777786255,
				-0.08041413128376007,
				0.030068546533584595
			]
		},
		{
			"mesh":7,
			"name":"waterplant_B.001",
			"translation":[
				-0.39317557215690613,
				-0.08095986396074295,
				0.256202757358551
			]
		}
	],
	"materials":[
		{
			"name":"hexagons_medieval.041",
			"pbrMetallicRoughness":{
				"baseColorTexture":{
					"index":0
				},
				"metallicFactor":0,
				"roughnessFactor":0.5
			}
		},
		{
			"name":"hexagons_medieval.019",
			"pbrMetallicRoughness":{
				"baseColorTexture":{
					"index":1
				},
				"metallicFactor":0,
				"roughnessFactor":0.5
			}
		},
		{
			"name":"hexagons_medieval.020",
			"pbrMetallicRoughness":{
				"baseColorTexture":{
					"index":2
				},
				"metallicFactor":0,
				"roughnessFactor":0.5
			}
		},
		{
			"name":"hexagons_medieval.021",
			"pbrMetallicRoughness":{
				"baseColorTexture":{
					"index":3
				},
				"metallicFactor":0,
				"roughnessFactor":0.5
			}
		},
		{
			"name":"hexagons_medieval.022",
			"pbrMetallicRoughness":{
				"baseColorTexture":{
					"index":4
				},
				"metallicFactor":0,
				"roughnessFactor":0.5
			}
		},
		{
			"name":"hexagons_medieval.018",
			"pbrMetallicRoughness":{
				"baseColorTexture":{
					"index":5
				},
				"metallicFactor":0,
				"roughnessFactor":0.5
			}
		},
		{
			"name":"hexagons_medieval.035",
			"pbrMetallicRoughness":{
				"baseColorTexture":{
					"index":6
				},
				"metallicFactor":0,
				"roughnessFactor":0.5
			}
		},
		{
			"name":"hexagons_medieval.038",
			"pbrMetallicRoughness":{
				"baseColorTexture":{
					"index":7
				},
				"metallicFactor":0,
				"roughnessFactor":0.5
			}
		},
		{
			"name":"hexagons_medieval.039",
			"pbrMetallicRoughness":{
				"baseColorTexture":{
					"index":8
				},
				"metallicFactor":0,
				"roughnessFactor":0.5
			}
		}
	],
	"meshes":[
		{
			"name":"hex_river_A",
			"primitives":[
				{
					"attributes":{
						"POSITION":0,
						"NORMAL":1,
						"TEXCOORD_0":2
					},
					"indices":3,
					"material":0
				}
			]
		},
		{
			"name":"rock_single_B",
			"primitives":[
				{
					"attributes":{
						"POSITION":4,
						"NORMAL":5,
						"TEXCOORD_0":6
					},
					"indices":7,
					"material":1
				}
			]
		},
		{
			"name":"rock_single_C",
			"primitives":[
				{
					"attributes":{
						"POSITION":8,
						"NORMAL":9,
						"TEXCOORD_0":10
					},
					"indices":11,
					"material":2
				}
			]
		},
		{
			"name":"rock_single_D",
			"primitives":[
				{
					"attributes":{
						"POSITION":12,
						"NORMAL":13,
						"TEXCOORD_0":14
					},
					"indices":15,
					"material":3
				}
			]
		},
		{
			"name":"rock_single_E",
			"primitives":[
				{
					"attributes":{
						"POSITION":16,
						"NORMAL":17,
						"TEXCOORD_0":18
					},
					"indices":19,
					"material":4
				}
			]
		},
		{
			"name":"rock_single_A",
			"primitives":[
				{
					"attributes":{
						"POSITION":20,
						"NORMAL":21,
						"TEXCOORD_0":22
					},
					"indices":23,
					"material":5
				}
			]
		},
		{
			"name":"waterlily_A",
			"primitives":[
				{
					"attributes":{
						"POSITION":24,
						"NORMAL":25,
						"TEXCOORD_0":26
					},
					"indices":27,
					"material":6
				}
			]
		},
		{
			"name":"waterplant_B",
			"primitives":[
				{
					"attributes":{
						"POSITION":28,
						"NORMAL":29,
						"TEXCOORD_0":30
					},
					"indices":31,
					"material":7
				}
			]
		},
		{
			"name":"waterplant_C",
			"primitives":[
				{
					"attributes":{
						"POSITION":32,
						"NORMAL":33,
						"TEXCOORD_0":34
					},
					"indices":35,
					"material":8
				}
			]
		}
	],
	"textures":[
		{
			"sampler":0,
			"source":0
		},
		{
			"sampler":0,
			"source":0
		},
		{
			"sampler":0,
			"source":0
		},
		{
			"sampler":0,
			"source":0
		},
		{
			"sampler":0,
			"source":0
		},
		{
			"sampler":0,
			"source":0
		},
		{
			"sampler":0,
			"source":0
		},
		{
			"sampler":0,
			"source":0
		},
		{
			"sampler":0,
			"source":0
		}
	],
	"images":[
		{
			"mimeType":"image/png",
			"name":"hexagons_medieval",
			"uri":"hexagons_medieval.png"
		}
	],
	"accessors":[
		{
			"bufferView":0,
			"componentType":5126,
			"count":133,
			"max":[
				1,
				7.450580596923828e-09,
				1.1547000408172607
			],
			"min":[
				-1,
				-1,
				-1.1547000408172607
			],
			"type":"VEC3"
		},
		{
			"bufferView":1,
			"componentType":5126,
			"count":133,
			"type":"VEC3"
		},
		{
			"bufferView":2,
			"componentType":5126,
			"count":133,
			"type":"VEC2"
		},
		{
			"bufferView":3,
			"componentType":5123,
			"count":246,
			"type":"SCALAR"
		},
		{
			"bufferView":4,
			"componentType":5126,
			"count":46,
			"max":[
				0.14463868737220764,
				0.13458546996116638,
				0.12174663692712784
			],
			"min":[
				-0.14197711646556854,
				-9.681238033465434e-10,
				-0.12800288200378418
			],
			"type":"VEC3"
		},
		{
			"bufferView":5,
			"componentType":5126,
			"count":46,
			"type":"VEC3"
		},
		{
			"bufferView":6,
			"componentType":5126,
			"count":46,
			"type":"VEC2"
		},
		{
			"bufferView":7,
			"componentType":5123,
			"count":78,
			"type":"SCALAR"
		},
		{
			"bufferView":8,
			"componentType":5126,
			"count":61,
			"max":[
				0.1586364507675171,
				0.19468727707862854,
				0.16218942403793335
			],
			"min":[
				-0.18526723980903625,
				-9.38796074478887e-05,
				-0.18201489746570587
			],
			"type":"VEC3"
		},
		{
			"bufferView":9,
			"componentType":5126,
			"count":61,
			"type":"VEC3"
		},
		{
			"bufferView":10,
			"componentType":5126,
			"count":61,
			"type":"VEC2"
		},
		{
			"bufferView":11,
			"componentType":5123,
			"count":120,
			"type":"SCALAR"
		},
		{
			"bufferView":12,
			"componentType":5126,
			"count":38,
			"max":[
				0.14463868737220764,
				0.16293124854564667,
				0.12004894018173218
			],
			"min":[
				-0.14197711646556854,
				-9.681238033465434e-10,
				-0.12970057129859924
			],
			"type":"VEC3"
		},
		{
			"bufferView":13,
			"componentType":5126,
			"count":38,
			"type":"VEC3"
		},
		{
			"bufferView":14,
			"componentType":5126,
			"count":38,
			"type":"VEC2"
		},
		{
			"bufferView":15,
			"componentType":5123,
			"count":66,
			"type":"SCALAR"
		},
		{
			"bufferView":16,
			"componentType":5126,
			"count":121,
			"max":[
				0.23278957605361938,
				0.19468727707862854,
				0.1627117246389389
			],
			"min":[
				-0.2553517520427704,
				-9.38796074478887e-05,
				-0.18480737507343292
			],
			"type":"VEC3"
		},
		{
			"bufferView":17,
			"componentType":5126,
			"count":121,
			"type":"VEC3"
		},
		{
			"bufferView":18,
			"componentType":5126,
			"count":121,
			"type":"VEC2"
		},
		{
			"bufferView":19,
			"componentType":5123,
			"count":213,
			"type":"SCALAR"
		},
		{
			"bufferView":20,
			"componentType":5126,
			"count":35,
			"max":[
				0.14910902082920074,
				0.06930101662874222,
				0.12683971226215363
			],
			"min":[
				-0.14910900592803955,
				0,
				-0.15678249299526215
			],
			"type":"VEC3"
		},
		{
			"bufferView":21,
			"componentType":5126,
			"count":35,
			"type":"VEC3"
		},
		{
			"bufferView":22,
			"componentType":5126,
			"count":35,
			"type":"VEC2"
		},
		{
			"bufferView":23,
			"componentType":5123,
			"count":54,
			"type":"SCALAR"
		},
		{
			"bufferView":24,
			"componentType":5126,
			"count":69,
			"max":[
				0.07257223129272461,
				0.017148621380329132,
				0.07205497473478317
			],
			"min":[
				-0.07257223129272461,
				0,
				-0.0725722461938858
			],
			"type":"VEC3"
		},
		{
			"bufferView":25,
			"componentType":5126,
			"count":69,
			"type":"VEC3"
		},
		{
			"bufferView":26,
			"componentType":5126,
			"count":69,
			"type":"VEC2"
		},
		{
			"bufferView":27,
			"componentType":5123,
			"count":204,
			"type":"SCALAR"
		},
		{
			"bufferView":28,
			"componentType":5126,
			"count":152,
			"max":[
				0.07337571680545807,
				0.23518936336040497,
				0.03890511393547058
			],
			"min":[
				-0.08457821607589722,
				-0.01904015988111496,
				-0.06416231393814087
			],
			"type":"VEC3"
		},
		{
			"bufferView":29,
			"componentType":5126,
			"count":152,
			"type":"VEC3"
		},
		{
			"bufferView":30,
			"componentType":5126,
			"count":152,
			"type":"VEC2"
		},
		{
			"bufferView":31,
			"componentType":5123,
			"count":486,
			"type":"SCALAR"
		},
		{
			"bufferView":32,
			"componentType":5126,
			"count":307,
			"max":[
				0.07622702419757843,
				0.2275698482990265,
				0.0927375853061676
			],
			"min":[
				-0.12204422056674957,
				-0.019585534930229187,
				-0.12295514345169067
			],
			"type":"VEC3"
		},
		{
			"bufferView":33,
			"componentType":5126,
			"count":307,
			"type":"VEC3"
		},
		{
			"bufferView":34,
			"componentType":5126,
			"count":307,
			"type":"VEC2"
		},
		{
			"bufferView":35,
			"componentType":5123,
			"count":1014,
			"type":"SCALAR"
		}
	],
	"bufferViews":[
		{
			"buffer":0,
			"byteLength":1596,
			"byteOffset":0,
			"target":34962
		},
		{
			"buffer":0,
			"byteLength":1596,
			"byteOffset":1596,
			"target":34962
		},
		{
			"buffer":0,
			"byteLength":1064,
			"byteOffset":3192,
			"target":34962
		},
		{
			"buffer":0,
			"byteLength":492,
			"byteOffset":4256,
			"target":34963
		},
		{
			"buffer":0,
			"byteLength":552,
			"byteOffset":4748,
			"target":34962
		},
		{
			"buffer":0,
			"byteLength":552,
			"byteOffset":5300,
			"target":34962
		},
		{
			"buffer":0,
			"byteLength":368,
			"byteOffset":5852,
			"target":34962
		},
		{
			"buffer":0,
			"byteLength":156,
			"byteOffset":6220,
			"target":34963
		},
		{
			"buffer":0,
			"byteLength":732,
			"byteOffset":6376,
			"target":34962
		},
		{
			"buffer":0,
			"byteLength":732,
			"byteOffset":7108,
			"target":34962
		},
		{
			"buffer":0,
			"byteLength":488,
			"byteOffset":7840,
			"target":34962
		},
		{
			"buffer":0,
			"byteLength":240,
			"byteOffset":8328,
			"target":34963
		},
		{
			"buffer":0,
			"byteLength":456,
			"byteOffset":8568,
			"target":34962
		},
		{
			"buffer":0,
			"byteLength":456,
			"byteOffset":9024,
			"target":34962
		},
		{
			"buffer":0,
			"byteLength":304,
			"byteOffset":9480,
			"target":34962
		},
		{
			"buffer":0,
			"byteLength":132,
			"byteOffset":9784,
			"target":34963
		},
		{
			"buffer":0,
			"byteLength":1452,
			"byteOffset":9916,
			"target":34962
		},
		{
			"buffer":0,
			"byteLength":1452,
			"byteOffset":11368,
			"target":34962
		},
		{
			"buffer":0,
			"byteLength":968,
			"byteOffset":12820,
			"target":34962
		},
		{
			"buffer":0,
			"byteLength":426,
			"byteOffset":13788,
			"target":34963
		},
		{
			"buffer":0,
			"byteLength":420,
			"byteOffset":14216,
			"target":34962
		},
		{
			"buffer":0,
			"byteLength":420,
			"byteOffset":14636,
			"target":34962
		},
		{
			"buffer":0,
			"byteLength":280,
			"byteOffset":15056,
			"target":34962
		},
		{
			"buffer":0,
			"byteLength":108,
			"byteOffset":15336,
			"target":34963
		},
		{
			"buffer":0,
			"byteLength":828,
			"byteOffset":15444,
			"target":34962
		},
		{
			"buffer":0,
			"byteLength":828,
			"byteOffset":16272,
			"target":34962
		},
		{
			"buffer":0,
			"byteLength":552,
			"byteOffset":17100,
			"target":34962
		},
		{
			"buffer":0,
			"byteLength":408,
			"byteOffset":17652,
			"target":34963
		},
		{
			"buffer":0,
			"byteLength":1824,
			"byteOffset":18060,
			"target":34962
		},
		{
			"buffer":0,
			"byteLength":1824,
			"byteOffset":19884,
			"target":34962
		},
		{
			"buffer":0,
			"byteLength":1216,
			"byteOffset":21708,
			"target":34962
		},
		{
			"buffer":0,
			"byteLength":972,
			"byteOffset":22924,
			"target":34963
		},
		{
			"buffer":0,
			"byteLength":3684,
			"byteOffset":23896,
			"target":34962
		},
		{
			"buffer":0,
			"byteLength":3684,
			"byteOffset":27580,
			"target":34962
		},
		{
			"buffer":0,
			"byteLength":2456,
			"byteOffset":31264,
			"target":34962
		},
		{
			"buffer":0,
			"byteLength":2028,
			"byteOffset":33720,
			"target":34963
		}
	],
	"samplers":[
		{
			"magFilter":9729,
			"minFilter":9987
		}
	],
	"buffers":[
		{
			"byteLength":35748,
			"uri":"hex_river_start_end.bin"
		}
	]
}
