{
	"asset":{
		"generator":"Khronos glTF Blender I/O v5.1.19",
		"version":"2.0"
	},
	"scene":0,
	"scenes":[
		{
			"name":"Scene",
			"nodes":[
				0,
				1,
				2,
				3,
				4,
				5,
				6
			]
		}
	],
	"nodes":[
		{
			"mesh":0,
			"name":"hill_single_B",
			"translation":[
				0.36398643255233765,
				-0.21038435399532318,
				0.0719362199306488
			]
		},
		{
			"mesh":1,
			"name":"hill_single_C",
			"translation":[
				-0.36245644092559814,
				-0.22984187304973602,
				-0.17422804236412048
			]
		},
		{
			"mesh":2,
			"name":"rock_single_C",
			"rotation":[
				-0.024505682289600372,
				0.0009491816745139658,
				0.03869247809052467,
				0.9989503026008606
			],
			"translation":[
				0.1431824117898941,
				0.07355090230703354,
				-0.020939163863658905
			]
		},
		{
			"mesh":3,
			"name":"rock_single_E",
			"rotation":[
				0.015348980203270912,
				-0.0008748534019105136,
				0.05689840391278267,
				0.998261570930481
			],
			"translation":[
				0.19660785794258118,
				0.12825807929039001,
				0.14135992527008057
			]
		},
		{
			"mesh":4,
			"name":"rock_single_B",
			"rotation":[
				-0.024505678564310074,
				0.000949181558098644,
				0.03869247809052467,
				0.9989503026008606
			],
			"scale":[
				1.1030092239379883,
				1.1030092239379883,
				1.1030093431472778
			],
			"translation":[
				0.18999958038330078,
				0.14061379432678223,
				-0.1650407761335373
			]
		},
		{
			"mesh":5,
			"name":"tree_single_A",
			"rotation":[
				0.0017154267989099026,
				0.00010064109665108845,
				-0.058567482978105545,
				0.9982820749282837
			],
			"translation":[
				0.5412356853485107,
				0.2901087701320648,
				0.0459187887609005
			]
		},
		{
			"mesh":5,
			"name":"tree_single_A.001",
			"rotation":[
				0,
				1,
				0,
				0
			],
			"translation":[
				0.08538839966058731,
				0.059048593044281006,
				-0.9951552152633667
			]
		}
	],
	"materials":[
		{
			"name":"hexagons_medieval.009",
			"pbrMetallicRoughness":{
				"baseColorTexture":{
					"index":0
				},
				"metallicFactor":0,
				"roughnessFactor":0.5
			}
		},
		{
			"name":"hexagons_medieval.010",
			"pbrMetallicRoughness":{
				"baseColorTexture":{
					"index":1
				},
				"metallicFactor":0,
				"roughnessFactor":0.5
			}
		},
		{
			"name":"hexagons_medieval.012",
			"pbrMetallicRoughness":{
				"baseColorTexture":{
					"index":2
				},
				"metallicFactor":0,
				"roughnessFactor":0.5
			}
		},
		{
			"name":"hexagons_medieval.013",
			"pbrMetallicRoughness":{
				"baseColorTexture":{
					"index":3
				},
				"metallicFactor":0,
				"roughnessFactor":0.5
			}
		},
		{
			"name":"hexagons_medieval.014",
			"pbrMetallicRoughness":{
				"baseColorTexture":{
					"index":4
				},
				"metallicFactor":0,
				"roughnessFactor":0.5
			}
		},
		{
			"name":"hexagons_medieval.023",
			"pbrMetallicRoughness":{
				"baseColorTexture":{
					"index":5
				},
				"metallicFactor":0,
				"roughnessFactor":0.5
			}
		}
	],
	"meshes":[
		{
			"name":"hill_single_B",
			"primitives":[
				{
					"attributes":{
						"POSITION":0,
						"NORMAL":1,
						"TEXCOORD_0":2
					},
					"indices":3,
					"material":0
				}
			]
		},
		{
			"name":"hill_single_C.001",
			"primitives":[
				{
					"attributes":{
						"POSITION":4,
						"NORMAL":5,
						"TEXCOORD_0":6
					},
					"indices":7,
					"material":1
				}
			]
		},
		{
			"name":"rock_single_C.003",
			"primitives":[
				{
					"attributes":{
						"POSITION":8,
						"NORMAL":9,
						"TEXCOORD_0":10
					},
					"indices":11,
					"material":2
				}
			]
		},
		{
			"name":"rock_single_E.001",
			"primitives":[
				{
					"attributes":{
						"POSITION":12,
						"NORMAL":13,
						"TEXCOORD_0":14
					},
					"indices":15,
					"material":3
				}
			]
		},
		{
			"name":"rock_single_B.001",
			"primitives":[
				{
					"attributes":{
						"POSITION":16,
						"NORMAL":17,
						"TEXCOORD_0":18
					},
					"indices":19,
					"material":4
				}
			]
		},
		{
			"name":"tree_single_A",
			"primitives":[
				{
					"attributes":{
						"POSITION":20,
						"NORMAL":21,
						"TEXCOORD_0":22
					},
					"indices":23,
					"material":5
				}
			]
		}
	],
	"textures":[
		{
			"sampler":0,
			"source":0
		},
		{
			"sampler":0,
			"source":0
		},
		{
			"sampler":0,
			"source":0
		},
		{
			"sampler":0,
			"source":0
		},
		{
			"sampler":0,
			"source":0
		},
		{
			"sampler":0,
			"source":0
		}
	],
	"images":[
		{
			"mimeType":"image/png",
			"name":"hexagons_medieval",
			"uri":"hexagons_medieval.png"
		}
	],
	"accessors":[
		{
			"bufferView":0,
			"componentType":5126,
			"count":92,
			"max":[
				0.4579383134841919,
				0.41870954632759094,
				0.5937756896018982
			],
			"min":[
				-0.5370608568191528,
				0,
				-0.7666846513748169
			],
			"type":"VEC3"
		},
		{
			"bufferView":1,
			"componentType":5126,
			"count":92,
			"type":"VEC3"
		},
		{
			"bufferView":2,
			"componentType":5126,
			"count":92,
			"type":"VEC2"
		},
		{
			"bufferView":3,
			"componentType":5123,
			"count":180,
			"type":"SCALAR"
		},
		{
			"bufferView":4,
			"componentType":5126,
			"count":95,
			"max":[
				0.5132275819778442,
				0.5885831117630005,
				0.6190618276596069
			],
			"min":[
				-0.5111537575721741,
				0,
				-0.7058466672897339
			],
			"type":"VEC3"
		},
		{
			"bufferView":5,
			"componentType":5126,
			"count":95,
			"type":"VEC3"
		},
		{
			"bufferView":6,
			"componentType":5126,
			"count":95,
			"type":"VEC2"
		},
		{
			"bufferView":7,
			"componentType":5123,
			"count":180,
			"type":"SCALAR"
		},
		{
			"bufferView":8,
			"componentType":5126,
			"count":61,
			"max":[
				0.1586364507675171,
				0.19468727707862854,
				0.16218942403793335
			],
			"min":[
				-0.18526723980903625,
				-9.38796074478887e-05,
				-0.18201489746570587
			],
			"type":"VEC3"
		},
		{
			"bufferView":9,
			"componentType":5126,
			"count":61,
			"type":"VEC3"
		},
		{
			"bufferView":10,
			"componentType":5126,
			"count":61,
			"type":"VEC2"
		},
		{
			"bufferView":11,
			"componentType":5123,
			"count":120,
			"type":"SCALAR"
		},
		{
			"bufferView":12,
			"componentType":5126,
			"count":121,
			"max":[
				0.23278957605361938,
				0.19468727707862854,
				0.1627117246389389
			],
			"min":[
				-0.2553517520427704,
				-9.38796074478887e-05,
				-0.18480737507343292
			],
			"type":"VEC3"
		},
		{
			"bufferView":13,
			"componentType":5126,
			"count":121,
			"type":"VEC3"
		},
		{
			"bufferView":14,
			"componentType":5126,
			"count":121,
			"type":"VEC2"
		},
		{
			"bufferView":15,
			"componentType":5123,
			"count":213,
			"type":"SCALAR"
		},
		{
			"bufferView":16,
			"componentType":5126,
			"count":46,
			"max":[
				0.14463868737220764,
				0.13458546996116638,
				0.12174663692712784
			],
			"min":[
				-0.14197711646556854,
				-9.681238033465434e-10,
				-0.12800288200378418
			],
			"type":"VEC3"
		},
		{
			"bufferView":17,
			"componentType":5126,
			"count":46,
			"type":"VEC3"
		},
		{
			"bufferView":18,
			"componentType":5126,
			"count":46,
			"type":"VEC2"
		},
		{
			"bufferView":19,
			"componentType":5123,
			"count":78,
			"type":"SCALAR"
		},
		{
			"bufferView":20,
			"componentType":5126,
			"count":102,
			"max":[
				0.28644031286239624,
				1.0938414335250854,
				0.2452930510044098
			],
			"min":[
				-0.28753381967544556,
				-0.10260728746652603,
				-0.30171626806259155
			],
			"type":"VEC3"
		},
		{
			"bufferView":21,
			"componentType":5126,
			"count":102,
			"type":"VEC3"
		},
		{
			"bufferView":22,
			"componentType":5126,
			"count":102,
			"type":"VEC2"
		},
		{
			"bufferView":23,
			"componentType":5123,
			"count":150,
			"type":"SCALAR"
		}
	],
	"bufferViews":[
		{
			"buffer":0,
			"byteLength":1104,
			"byteOffset":0,
			"target":34962
		},
		{
			"buffer":0,
			"byteLength":1104,
			"byteOffset":1104,
			"target":34962
		},
		{
			"buffer":0,
			"byteLength":736,
			"byteOffset":2208,
			"target":34962
		},
		{
			"buffer":0,
			"byteLength":360,
			"byteOffset":2944,
			"target":34963
		},
		{
			"buffer":0,
			"byteLength":1140,
			"byteOffset":3304,
			"target":34962
		},
		{
			"buffer":0,
			"byteLength":1140,
			"byteOffset":4444,
			"target":34962
		},
		{
			"buffer":0,
			"byteLength":760,
			"byteOffset":5584,
			"target":34962
		},
		{
			"buffer":0,
			"byteLength":360,
			"byteOffset":6344,
			"target":34963
		},
		{
			"buffer":0,
			"byteLength":732,
			"byteOffset":6704,
			"target":34962
		},
		{
			"buffer":0,
			"byteLength":732,
			"byteOffset":7436,
			"target":34962
		},
		{
			"buffer":0,
			"byteLength":488,
			"byteOffset":8168,
			"target":34962
		},
		{
			"buffer":0,
			"byteLength":240,
			"byteOffset":8656,
			"target":34963
		},
		{
			"buffer":0,
			"byteLength":1452,
			"byteOffset":8896,
			"target":34962
		},
		{
			"buffer":0,
			"byteLength":1452,
			"byteOffset":10348,
			"target":34962
		},
		{
			"buffer":0,
			"byteLength":968,
			"byteOffset":11800,
			"target":34962
		},
		{
			"buffer":0,
			"byteLength":426,
			"byteOffset":12768,
			"target":34963
		},
		{
			"buffer":0,
			"byteLength":552,
			"byteOffset":13196,
			"target":34962
		},
		{
			"buffer":0,
			"byteLength":552,
			"byteOffset":13748,
			"target":34962
		},
		{
			"buffer":0,
			"byteLength":368,
			"byteOffset":14300,
			"target":34962
		},
		{
			"buffer":0,
			"byteLength":156,
			"byteOffset":14668,
			"target":34963
		},
		{
			"buffer":0,
			"byteLength":1224,
			"byteOffset":14824,
			"target":34962
		},
		{
			"buffer":0,
			"byteLength":1224,
			"byteOffset":16048,
			"target":34962
		},
		{
			"buffer":0,
			"byteLength":816,
			"byteOffset":17272,
			"target":34962
		},
		{
			"buffer":0,
			"byteLength":300,
			"byteOffset":18088,
			"target":34963
		}
	],
	"samplers":[
		{
			"magFilter":9729,
			"minFilter":9987
		}
	],
	"buffers":[
		{
			"byteLength":18388,
			"uri":"medium_1_A.bin"
		}
	]
}
