{
	"asset":{
		"generator":"Khronos glTF Blender I/O v5.1.19",
		"version":"2.0"
	},
	"scene":0,
	"scenes":[
		{
			"name":"Scene",
			"nodes":[
				0,
				1,
				2,
				3,
				4,
				5,
				6
			]
		}
	],
	"nodes":[
		{
			"mesh":0,
			"name":"hill_single_B",
			"translation":[
				0.36398643255233765,
				-0.21038435399532318,
				0.0719362199306488
			]
		},
		{
			"mesh":1,
			"name":"hill_single_C",
			"translation":[
				-0.36245644092559814,
				-0.22984187304973602,
				-0.17422804236412048
			]
		},
		{
			"mesh":2,
			"name":"tree_single_B",
			"translation":[
				0.5495986342430115,
				0.25961124897003174,
				0.03734093904495239
			]
		},
		{
			"mesh":2,
			"name":"tree_single_B.001",
			"translation":[
				0.15676116943359375,
				0.10000007599592209,
				-0.7998154759407043
			]
		},
		{
			"mesh":3,
			"name":"rock_single_C",
			"rotation":[
				-0.024505680426955223,
				0.0009491816163063049,
				0.03869247809052467,
				0.9989503026008606
			],
			"translation":[
				0.1431824117898941,
				0.07355090230703354,
				-0.020939163863658905
			]
		},
		{
			"mesh":4,
			"name":"rock_single_E",
			"rotation":[
				0.015348980203270912,
				-0.0008748534601181746,
				0.05689840763807297,
				0.998261570930481
			],
			"translation":[
				0.19660785794258118,
				0.12825807929039001,
				0.14135992527008057
			]
		},
		{
			"mesh":5,
			"name":"rock_single_B",
			"rotation":[
				-0.024505678564310074,
				0.000949181558098644,
				0.03869247809052467,
				0.9989503026008606
			],
			"scale":[
				1.1030092239379883,
				1.1030092239379883,
				1.1030093431472778
			],
			"translation":[
				0.18999958038330078,
				0.14061379432678223,
				-0.1650407761335373
			]
		}
	],
	"materials":[
		{
			"name":"hexagons_medieval.002",
			"pbrMetallicRoughness":{
				"baseColorTexture":{
					"index":0
				},
				"metallicFactor":0,
				"roughnessFactor":0.5
			}
		},
		{
			"name":"hexagons_medieval.003",
			"pbrMetallicRoughness":{
				"baseColorTexture":{
					"index":1
				},
				"metallicFactor":0,
				"roughnessFactor":0.5
			}
		},
		{
			"name":"hexagons_medieval.025",
			"pbrMetallicRoughness":{
				"baseColorTexture":{
					"index":2
				},
				"metallicFactor":0,
				"roughnessFactor":0.5
			}
		},
		{
			"name":"hexagons_medieval.020",
			"pbrMetallicRoughness":{
				"baseColorTexture":{
					"index":3
				},
				"metallicFactor":0,
				"roughnessFactor":0.5
			}
		},
		{
			"name":"hexagons_medieval.022",
			"pbrMetallicRoughness":{
				"baseColorTexture":{
					"index":4
				},
				"metallicFactor":0,
				"roughnessFactor":0.5
			}
		},
		{
			"name":"hexagons_medieval.019",
			"pbrMetallicRoughness":{
				"baseColorTexture":{
					"index":5
				},
				"metallicFactor":0,
				"roughnessFactor":0.5
			}
		}
	],
	"meshes":[
		{
			"name":"hill_single_B",
			"primitives":[
				{
					"attributes":{
						"POSITION":0,
						"NORMAL":1,
						"TEXCOORD_0":2
					},
					"indices":3,
					"material":0
				}
			]
		},
		{
			"name":"hill_single_C",
			"primitives":[
				{
					"attributes":{
						"POSITION":4,
						"NORMAL":5,
						"TEXCOORD_0":6
					},
					"indices":7,
					"material":1
				}
			]
		},
		{
			"name":"tree_single_B",
			"primitives":[
				{
					"attributes":{
						"POSITION":8,
						"NORMAL":9,
						"TEXCOORD_0":10
					},
					"indices":11,
					"material":2
				}
			]
		},
		{
			"name":"rock_single_C",
			"primitives":[
				{
					"attributes":{
						"POSITION":12,
						"NORMAL":13,
						"TEXCOORD_0":14
					},
					"indices":15,
					"material":3
				}
			]
		},
		{
			"name":"rock_single_E",
			"primitives":[
				{
					"attributes":{
						"POSITION":16,
						"NORMAL":17,
						"TEXCOORD_0":18
					},
					"indices":19,
					"material":4
				}
			]
		},
		{
			"name":"rock_single_B",
			"primitives":[
				{
					"attributes":{
						"POSITION":20,
						"NORMAL":21,
						"TEXCOORD_0":22
					},
					"indices":23,
					"material":5
				}
			]
		}
	],
	"textures":[
		{
			"sampler":0,
			"source":0
		},
		{
			"sampler":0,
			"source":0
		},
		{
			"sampler":0,
			"source":0
		},
		{
			"sampler":0,
			"source":0
		},
		{
			"sampler":0,
			"source":0
		},
		{
			"sampler":0,
			"source":0
		}
	],
	"images":[
		{
			"mimeType":"image/png",
			"name":"hexagons_medieval",
			"uri":"hexagons_medieval.png"
		}
	],
	"accessors":[
		{
			"bufferView":0,
			"componentType":5126,
			"count":92,
			"max":[
				0.4579383134841919,
				0.41870954632759094,
				0.5937756896018982
			],
			"min":[
				-0.5370608568191528,
				0,
				-0.7666846513748169
			],
			"type":"VEC3"
		},
		{
			"bufferView":1,
			"componentType":5126,
			"count":92,
			"type":"VEC3"
		},
		{
			"bufferView":2,
			"componentType":5126,
			"count":92,
			"type":"VEC2"
		},
		{
			"bufferView":3,
			"componentType":5123,
			"count":180,
			"type":"SCALAR"
		},
		{
			"bufferView":4,
			"componentType":5126,
			"count":95,
			"max":[
				0.5132275819778442,
				0.5885831117630005,
				0.6190618276596069
			],
			"min":[
				-0.5111537575721741,
				0,
				-0.7058466672897339
			],
			"type":"VEC3"
		},
		{
			"bufferView":5,
			"componentType":5126,
			"count":95,
			"type":"VEC3"
		},
		{
			"bufferView":6,
			"componentType":5126,
			"count":95,
			"type":"VEC2"
		},
		{
			"bufferView":7,
			"componentType":5123,
			"count":180,
			"type":"SCALAR"
		},
		{
			"bufferView":8,
			"componentType":5126,
			"count":189,
			"max":[
				0.34244194626808167,
				1.1126774549484253,
				0.360063761472702
			],
			"min":[
				-0.34244003891944885,
				-0.09999983757734299,
				-0.3600638508796692
			],
			"type":"VEC3"
		},
		{
			"bufferView":9,
			"componentType":5126,
			"count":189,
			"type":"VEC3"
		},
		{
			"bufferView":10,
			"componentType":5126,
			"count":189,
			"type":"VEC2"
		},
		{
			"bufferView":11,
			"componentType":5123,
			"count":660,
			"type":"SCALAR"
		},
		{
			"bufferView":12,
			"componentType":5126,
			"count":61,
			"max":[
				0.1586364507675171,
				0.19468727707862854,
				0.16218942403793335
			],
			"min":[
				-0.18526723980903625,
				-9.38796074478887e-05,
				-0.18201489746570587
			],
			"type":"VEC3"
		},
		{
			"bufferView":13,
			"componentType":5126,
			"count":61,
			"type":"VEC3"
		},
		{
			"bufferView":14,
			"componentType":5126,
			"count":61,
			"type":"VEC2"
		},
		{
			"bufferView":15,
			"componentType":5123,
			"count":120,
			"type":"SCALAR"
		},
		{
			"bufferView":16,
			"componentType":5126,
			"count":121,
			"max":[
				0.23278957605361938,
				0.19468727707862854,
				0.1627117246389389
			],
			"min":[
				-0.2553517520427704,
				-9.38796074478887e-05,
				-0.18480737507343292
			],
			"type":"VEC3"
		},
		{
			"bufferView":17,
			"componentType":5126,
			"count":121,
			"type":"VEC3"
		},
		{
			"bufferView":18,
			"componentType":5126,
			"count":121,
			"type":"VEC2"
		},
		{
			"bufferView":19,
			"componentType":5123,
			"count":213,
			"type":"SCALAR"
		},
		{
			"bufferView":20,
			"componentType":5126,
			"count":46,
			"max":[
				0.14463868737220764,
				0.13458546996116638,
				0.12174663692712784
			],
			"min":[
				-0.14197711646556854,
				-9.681238033465434e-10,
				-0.12800288200378418
			],
			"type":"VEC3"
		},
		{
			"bufferView":21,
			"componentType":5126,
			"count":46,
			"type":"VEC3"
		},
		{
			"bufferView":22,
			"componentType":5126,
			"count":46,
			"type":"VEC2"
		},
		{
			"bufferView":23,
			"componentType":5123,
			"count":78,
			"type":"SCALAR"
		}
	],
	"bufferViews":[
		{
			"buffer":0,
			"byteLength":1104,
			"byteOffset":0,
			"target":34962
		},
		{
			"buffer":0,
			"byteLength":1104,
			"byteOffset":1104,
			"target":34962
		},
		{
			"buffer":0,
			"byteLength":736,
			"byteOffset":2208,
			"target":34962
		},
		{
			"buffer":0,
			"byteLength":360,
			"byteOffset":2944,
			"target":34963
		},
		{
			"buffer":0,
			"byteLength":1140,
			"byteOffset":3304,
			"target":34962
		},
		{
			"buffer":0,
			"byteLength":1140,
			"byteOffset":4444,
			"target":34962
		},
		{
			"buffer":0,
			"byteLength":760,
			"byteOffset":5584,
			"target":34962
		},
		{
			"buffer":0,
			"byteLength":360,
			"byteOffset":6344,
			"target":34963
		},
		{
			"buffer":0,
			"byteLength":2268,
			"byteOffset":6704,
			"target":34962
		},
		{
			"buffer":0,
			"byteLength":2268,
			"byteOffset":8972,
			"target":34962
		},
		{
			"buffer":0,
			"byteLength":1512,
			"byteOffset":11240,
			"target":34962
		},
		{
			"buffer":0,
			"byteLength":1320,
			"byteOffset":12752,
			"target":34963
		},
		{
			"buffer":0,
			"byteLength":732,
			"byteOffset":14072,
			"target":34962
		},
		{
			"buffer":0,
			"byteLength":732,
			"byteOffset":14804,
			"target":34962
		},
		{
			"buffer":0,
			"byteLength":488,
			"byteOffset":15536,
			"target":34962
		},
		{
			"buffer":0,
			"byteLength":240,
			"byteOffset":16024,
			"target":34963
		},
		{
			"buffer":0,
			"byteLength":1452,
			"byteOffset":16264,
			"target":34962
		},
		{
			"buffer":0,
			"byteLength":1452,
			"byteOffset":17716,
			"target":34962
		},
		{
			"buffer":0,
			"byteLength":968,
			"byteOffset":19168,
			"target":34962
		},
		{
			"buffer":0,
			"byteLength":426,
			"byteOffset":20136,
			"target":34963
		},
		{
			"buffer":0,
			"byteLength":552,
			"byteOffset":20564,
			"target":34962
		},
		{
			"buffer":0,
			"byteLength":552,
			"byteOffset":21116,
			"target":34962
		},
		{
			"buffer":0,
			"byteLength":368,
			"byteOffset":21668,
			"target":34962
		},
		{
			"buffer":0,
			"byteLength":156,
			"byteOffset":22036,
			"target":34963
		}
	],
	"samplers":[
		{
			"magFilter":9729,
			"minFilter":9987
		}
	],
	"buffers":[
		{
			"byteLength":22192,
			"uri":"medium_1_B.bin"
		}
	]
}
