{
	"asset":{
		"generator":"Khronos glTF Blender I/O v5.1.19",
		"version":"2.0"
	},
	"scene":0,
	"scenes":[
		{
			"name":"Scene",
			"nodes":[
				0
			]
		}
	],
	"nodes":[
		{
			"mesh":0,
			"name":"hills_B",
			"translation":[
				-0.04715621471405029,
				9.376039815833792e-05,
				-0.048682987689971924
			]
		}
	],
	"materials":[
		{
			"name":"hexagons_medieval.005",
			"pbrMetallicRoughness":{
				"baseColorTexture":{
					"index":0
				},
				"metallicFactor":0,
				"roughnessFactor":0.5
			}
		}
	],
	"meshes":[
		{
			"name":"hills_B",
			"primitives":[
				{
					"attributes":{
						"POSITION":0,
						"NORMAL":1,
						"TEXCOORD_0":2
					},
					"indices":3,
					"material":0
				}
			]
		}
	],
	"textures":[
		{
			"sampler":0,
			"source":0
		}
	],
	"images":[
		{
			"mimeType":"image/png",
			"name":"hexagons_medieval",
			"uri":"hexagons_medieval.png"
		}
	],
	"accessors":[
		{
			"bufferView":0,
			"componentType":5126,
			"count":381,
			"max":[
				0.7030627131462097,
				0.3659045100212097,
				0.7383113503456116
			],
			"min":[
				-0.7704500555992126,
				-9.38796074478887e-05,
				-0.885293185710907
			],
			"type":"VEC3"
		},
		{
			"bufferView":1,
			"componentType":5126,
			"count":381,
			"type":"VEC3"
		},
		{
			"bufferView":2,
			"componentType":5126,
			"count":381,
			"type":"VEC2"
		},
		{
			"bufferView":3,
			"componentType":5123,
			"count":678,
			"type":"SCALAR"
		}
	],
	"bufferViews":[
		{
			"buffer":0,
			"byteLength":4572,
			"byteOffset":0,
			"target":34962
		},
		{
			"buffer":0,
			"byteLength":4572,
			"byteOffset":4572,
			"target":34962
		},
		{
			"buffer":0,
			"byteLength":3048,
			"byteOffset":9144,
			"target":34962
		},
		{
			"buffer":0,
			"byteLength":1356,
			"byteOffset":12192,
			"target":34963
		}
	],
	"samplers":[
		{
			"magFilter":9729,
			"minFilter":9987
		}
	],
	"buffers":[
		{
			"byteLength":13548,
			"uri":"medium_2.bin"
		}
	]
}
