{
	"asset":{
		"generator":"Khronos glTF Blender I/O v5.1.19",
		"version":"2.0"
	},
	"scene":0,
	"scenes":[
		{
			"name":"Scene",
			"nodes":[
				0,
				1,
				2,
				3,
				4,
				5,
				6,
				7,
				8
			]
		}
	],
	"nodes":[
		{
			"mesh":0,
			"name":"rock_single_C",
			"translation":[
				-0.4570949673652649,
				0,
				-0.6351704597473145
			]
		},
		{
			"mesh":1,
			"name":"rock_single_D",
			"scale":[
				2.0030195713043213,
				2.0030195713043213,
				2.0030195713043213
			],
			"translation":[
				-0.6474046111106873,
				0,
				-0.404052734375
			]
		},
		{
			"mesh":2,
			"name":"rock_single_A",
			"scale":[
				2.239833354949951,
				2.239833354949951,
				2.239833354949951
			],
			"translation":[
				-0.29679423570632935,
				0,
				0.17842210829257965
			]
		},
		{
			"mesh":3,
			"name":"hill_single_A",
			"scale":[
				0.4810153841972351,
				0.4810153841972351,
				0.4810153841972351
			],
			"translation":[
				0.5817397832870483,
				0,
				-0.3412936329841614
			]
		},
		{
			"mesh":3,
			"name":"hill_single_A.001",
			"scale":[
				0.31013888120651245,
				0.31013888120651245,
				0.31013888120651245
			],
			"translation":[
				0.45601126551628113,
				-0.012923662550747395,
				-0.11630415916442871
			]
		},
		{
			"mesh":4,
			"name":"rock_single_A.001",
			"scale":[
				0.5618379712104797,
				0.5618379712104797,
				0.5618379712104797
			],
			"translation":[
				0.6416314840316772,
				0,
				-0.1625991314649582
			]
		},
		{
			"mesh":5,
			"name":"tree_single_A",
			"translation":[
				0.03921729326248169,
				0.10260728746652603,
				-0.6931403875350952
			]
		},
		{
			"mesh":5,
			"name":"tree_single_A.001",
			"translation":[
				0.39924174547195435,
				0.10260728746652603,
				0.2278706282377243
			]
		},
		{
			"mesh":5,
			"name":"tree_single_A.002",
			"translation":[
				-0.7966155409812927,
				0.10260728746652603,
				0.08111311495304108
			]
		}
	],
	"materials":[
		{
			"name":"hexagons_medieval.016",
			"pbrMetallicRoughness":{
				"baseColorTexture":{
					"index":0
				},
				"metallicFactor":0,
				"roughnessFactor":0.5
			}
		},
		{
			"name":"hexagons_medieval.017",
			"pbrMetallicRoughness":{
				"baseColorTexture":{
					"index":1
				},
				"metallicFactor":0,
				"roughnessFactor":0.5
			}
		},
		{
			"name":"hexagons_medieval.024",
			"pbrMetallicRoughness":{
				"baseColorTexture":{
					"index":2
				},
				"metallicFactor":0,
				"roughnessFactor":0.5
			}
		},
		{
			"name":"hexagons_medieval.026",
			"pbrMetallicRoughness":{
				"baseColorTexture":{
					"index":3
				},
				"metallicFactor":0,
				"roughnessFactor":0.5
			}
		},
		{
			"name":"hexagons_medieval.027",
			"pbrMetallicRoughness":{
				"baseColorTexture":{
					"index":4
				},
				"metallicFactor":0,
				"roughnessFactor":0.5
			}
		},
		{
			"name":"hexagons_medieval.023",
			"pbrMetallicRoughness":{
				"baseColorTexture":{
					"index":5
				},
				"metallicFactor":0,
				"roughnessFactor":0.5
			}
		}
	],
	"meshes":[
		{
			"name":"rock_single_C.004",
			"primitives":[
				{
					"attributes":{
						"POSITION":0,
						"NORMAL":1,
						"TEXCOORD_0":2
					},
					"indices":3,
					"material":0
				}
			]
		},
		{
			"name":"rock_single_D.002",
			"primitives":[
				{
					"attributes":{
						"POSITION":4,
						"NORMAL":5,
						"TEXCOORD_0":6
					},
					"indices":7,
					"material":1
				}
			]
		},
		{
			"name":"rock_single_A.002",
			"primitives":[
				{
					"attributes":{
						"POSITION":8,
						"NORMAL":9,
						"TEXCOORD_0":10
					},
					"indices":11,
					"material":2
				}
			]
		},
		{
			"name":"hill_single_A.002",
			"primitives":[
				{
					"attributes":{
						"POSITION":12,
						"NORMAL":13,
						"TEXCOORD_0":14
					},
					"indices":15,
					"material":3
				}
			]
		},
		{
			"name":"rock_single_A.003",
			"primitives":[
				{
					"attributes":{
						"POSITION":16,
						"NORMAL":17,
						"TEXCOORD_0":18
					},
					"indices":11,
					"material":4
				}
			]
		},
		{
			"name":"tree_single_A",
			"primitives":[
				{
					"attributes":{
						"POSITION":19,
						"NORMAL":20,
						"TEXCOORD_0":21
					},
					"indices":22,
					"material":5
				}
			]
		}
	],
	"textures":[
		{
			"sampler":0,
			"source":0
		},
		{
			"sampler":0,
			"source":0
		},
		{
			"sampler":0,
			"source":0
		},
		{
			"sampler":0,
			"source":0
		},
		{
			"sampler":0,
			"source":0
		},
		{
			"sampler":0,
			"source":0
		}
	],
	"images":[
		{
			"mimeType":"image/png",
			"name":"hexagons_medieval",
			"uri":"hexagons_medieval.png"
		}
	],
	"accessors":[
		{
			"bufferView":0,
			"componentType":5126,
			"count":61,
			"max":[
				0.1586364507675171,
				0.19468727707862854,
				0.16218942403793335
			],
			"min":[
				-0.18526723980903625,
				-9.38796074478887e-05,
				-0.18201489746570587
			],
			"type":"VEC3"
		},
		{
			"bufferView":1,
			"componentType":5126,
			"count":61,
			"type":"VEC3"
		},
		{
			"bufferView":2,
			"componentType":5126,
			"count":61,
			"type":"VEC2"
		},
		{
			"bufferView":3,
			"componentType":5123,
			"count":120,
			"type":"SCALAR"
		},
		{
			"bufferView":4,
			"componentType":5126,
			"count":38,
			"max":[
				0.14463868737220764,
				0.16293124854564667,
				0.12004894018173218
			],
			"min":[
				-0.14197711646556854,
				-9.681238033465434e-10,
				-0.12970057129859924
			],
			"type":"VEC3"
		},
		{
			"bufferView":5,
			"componentType":5126,
			"count":38,
			"type":"VEC3"
		},
		{
			"bufferView":6,
			"componentType":5126,
			"count":38,
			"type":"VEC2"
		},
		{
			"bufferView":7,
			"componentType":5123,
			"count":66,
			"type":"SCALAR"
		},
		{
			"bufferView":8,
			"componentType":5126,
			"count":35,
			"max":[
				0.14910902082920074,
				0.06930101662874222,
				0.12683971226215363
			],
			"min":[
				-0.14910900592803955,
				0,
				-0.15678249299526215
			],
			"type":"VEC3"
		},
		{
			"bufferView":9,
			"componentType":5126,
			"count":35,
			"type":"VEC3"
		},
		{
			"bufferView":10,
			"componentType":5126,
			"count":35,
			"type":"VEC2"
		},
		{
			"bufferView":11,
			"componentType":5123,
			"count":54,
			"type":"SCALAR"
		},
		{
			"bufferView":12,
			"componentType":5126,
			"count":93,
			"max":[
				0.5911246538162231,
				0.3072676658630371,
				0.4076184034347534
			],
			"min":[
				-0.5187833905220032,
				0,
				-0.40169641375541687
			],
			"type":"VEC3"
		},
		{
			"bufferView":13,
			"componentType":5126,
			"count":93,
			"type":"VEC3"
		},
		{
			"bufferView":14,
			"componentType":5126,
			"count":93,
			"type":"VEC2"
		},
		{
			"bufferView":15,
			"componentType":5123,
			"count":180,
			"type":"SCALAR"
		},
		{
			"bufferView":16,
			"componentType":5126,
			"count":35,
			"max":[
				0.14910902082920074,
				0.06930101662874222,
				0.12683971226215363
			],
			"min":[
				-0.14910900592803955,
				0,
				-0.15678249299526215
			],
			"type":"VEC3"
		},
		{
			"bufferView":17,
			"componentType":5126,
			"count":35,
			"type":"VEC3"
		},
		{
			"bufferView":18,
			"componentType":5126,
			"count":35,
			"type":"VEC2"
		},
		{
			"bufferView":19,
			"componentType":5126,
			"count":102,
			"max":[
				0.28644031286239624,
				1.0938414335250854,
				0.2452930510044098
			],
			"min":[
				-0.28753381967544556,
				-0.10260728746652603,
				-0.30171626806259155
			],
			"type":"VEC3"
		},
		{
			"bufferView":20,
			"componentType":5126,
			"count":102,
			"type":"VEC3"
		},
		{
			"bufferView":21,
			"componentType":5126,
			"count":102,
			"type":"VEC2"
		},
		{
			"bufferView":22,
			"componentType":5123,
			"count":150,
			"type":"SCALAR"
		}
	],
	"bufferViews":[
		{
			"buffer":0,
			"byteLength":732,
			"byteOffset":0,
			"target":34962
		},
		{
			"buffer":0,
			"byteLength":732,
			"byteOffset":732,
			"target":34962
		},
		{
			"buffer":0,
			"byteLength":488,
			"byteOffset":1464,
			"target":34962
		},
		{
			"buffer":0,
			"byteLength":240,
			"byteOffset":1952,
			"target":34963
		},
		{
			"buffer":0,
			"byteLength":456,
			"byteOffset":2192,
			"target":34962
		},
		{
			"buffer":0,
			"byteLength":456,
			"byteOffset":2648,
			"target":34962
		},
		{
			"buffer":0,
			"byteLength":304,
			"byteOffset":3104,
			"target":34962
		},
		{
			"buffer":0,
			"byteLength":132,
			"byteOffset":3408,
			"target":34963
		},
		{
			"buffer":0,
			"byteLength":420,
			"byteOffset":3540,
			"target":34962
		},
		{
			"buffer":0,
			"byteLength":420,
			"byteOffset":3960,
			"target":34962
		},
		{
			"buffer":0,
			"byteLength":280,
			"byteOffset":4380,
			"target":34962
		},
		{
			"buffer":0,
			"byteLength":108,
			"byteOffset":4660,
			"target":34963
		},
		{
			"buffer":0,
			"byteLength":1116,
			"byteOffset":4768,
			"target":34962
		},
		{
			"buffer":0,
			"byteLength":1116,
			"byteOffset":5884,
			"target":34962
		},
		{
			"buffer":0,
			"byteLength":744,
			"byteOffset":7000,
			"target":34962
		},
		{
			"buffer":0,
			"byteLength":360,
			"byteOffset":7744,
			"target":34963
		},
		{
			"buffer":0,
			"byteLength":420,
			"byteOffset":8104,
			"target":34962
		},
		{
			"buffer":0,
			"byteLength":420,
			"byteOffset":8524,
			"target":34962
		},
		{
			"buffer":0,
			"byteLength":280,
			"byteOffset":8944,
			"target":34962
		},
		{
			"buffer":0,
			"byteLength":1224,
			"byteOffset":9224,
			"target":34962
		},
		{
			"buffer":0,
			"byteLength":1224,
			"byteOffset":10448,
			"target":34962
		},
		{
			"buffer":0,
			"byteLength":816,
			"byteOffset":11672,
			"target":34962
		},
		{
			"buffer":0,
			"byteLength":300,
			"byteOffset":12488,
			"target":34963
		}
	],
	"samplers":[
		{
			"magFilter":9729,
			"minFilter":9987
		}
	],
	"buffers":[
		{
			"byteLength":12788,
			"uri":"medium_3_A.bin"
		}
	]
}
