{
	"asset":{
		"generator":"Khronos glTF Blender I/O v5.1.19",
		"version":"2.0"
	},
	"scene":0,
	"scenes":[
		{
			"name":"Scene",
			"nodes":[
				0,
				1,
				2,
				3,
				4,
				5,
				6,
				7,
				8,
				9,
				10,
				11
			]
		}
	],
	"nodes":[
		{
			"mesh":0,
			"name":"hill_single_A",
			"translation":[
				-0.0277346670627594,
				0,
				-0.630404531955719
			]
		},
		{
			"mesh":1,
			"name":"hill_single_C",
			"scale":[
				0.44030678272247314,
				0.44030678272247314,
				0.44030678272247314
			],
			"translation":[
				-0.37352946400642395,
				0,
				0.41884082555770874
			]
		},
		{
			"mesh":2,
			"name":"rock_single_A.003",
			"translation":[
				0.022636882960796356,
				0,
				-0.21204768121242523
			]
		},
		{
			"mesh":3,
			"name":"rock_single_B",
			"translation":[
				-0.26500648260116577,
				0,
				0.16990883648395538
			]
		},
		{
			"mesh":4,
			"name":"rock_single_C.003",
			"scale":[
				1.1766186952590942,
				1.1766186952590942,
				1.1766186952590942
			],
			"translation":[
				0.49722129106521606,
				0,
				-0.4938516616821289
			]
		},
		{
			"mesh":5,
			"name":"rock_single_D.004",
			"translation":[
				-0.15398257970809937,
				0,
				0.012705430388450623
			]
		},
		{
			"mesh":6,
			"name":"rock_single_E.003",
			"translation":[
				0.2528979778289795,
				0,
				-0.3185112774372101
			]
		},
		{
			"mesh":7,
			"name":"tree_single_B.002",
			"translation":[
				-0.6319629549980164,
				0.09999983757734299,
				-0.11115904152393341
			]
		},
		{
			"mesh":7,
			"name":"tree_single_B.004",
			"translation":[
				0.04995463788509369,
				0.09999983757734299,
				0.8152177929878235
			]
		},
		{
			"mesh":7,
			"name":"tree_single_B.001",
			"translation":[
				0.7758908271789551,
				0.09999983757734299,
				0.5438368916511536
			]
		},
		{
			"mesh":7,
			"name":"tree_single_B",
			"translation":[
				0.15223002433776855,
				0.09999983757734299,
				-0.06004895269870758
			]
		},
		{
			"mesh":7,
			"name":"tree_single_B.003",
			"rotation":[
				0.07346677035093307,
				0.0006301527027972043,
				-0.008553889580070972,
				0.9972608089447021
			],
			"translation":[
				-0.04663379490375519,
				0.4041838049888611,
				-0.603812038898468
			]
		}
	],
	"materials":[
		{
			"name":"hexagons_medieval.028",
			"pbrMetallicRoughness":{
				"baseColorTexture":{
					"index":0
				},
				"metallicFactor":0,
				"roughnessFactor":0.5
			}
		},
		{
			"name":"hexagons_medieval.029",
			"pbrMetallicRoughness":{
				"baseColorTexture":{
					"index":1
				},
				"metallicFactor":0,
				"roughnessFactor":0.5
			}
		},
		{
			"name":"hexagons_medieval.030",
			"pbrMetallicRoughness":{
				"baseColorTexture":{
					"index":2
				},
				"metallicFactor":0,
				"roughnessFactor":0.5
			}
		},
		{
			"name":"hexagons_medieval.031",
			"pbrMetallicRoughness":{
				"baseColorTexture":{
					"index":3
				},
				"metallicFactor":0,
				"roughnessFactor":0.5
			}
		},
		{
			"name":"hexagons_medieval.032",
			"pbrMetallicRoughness":{
				"baseColorTexture":{
					"index":4
				},
				"metallicFactor":0,
				"roughnessFactor":0.5
			}
		},
		{
			"name":"hexagons_medieval.033",
			"pbrMetallicRoughness":{
				"baseColorTexture":{
					"index":5
				},
				"metallicFactor":0,
				"roughnessFactor":0.5
			}
		},
		{
			"name":"hexagons_medieval.034",
			"pbrMetallicRoughness":{
				"baseColorTexture":{
					"index":6
				},
				"metallicFactor":0,
				"roughnessFactor":0.5
			}
		},
		{
			"name":"hexagons_medieval.025",
			"pbrMetallicRoughness":{
				"baseColorTexture":{
					"index":7
				},
				"metallicFactor":0,
				"roughnessFactor":0.5
			}
		}
	],
	"meshes":[
		{
			"name":"hill_single_A.003",
			"primitives":[
				{
					"attributes":{
						"POSITION":0,
						"NORMAL":1,
						"TEXCOORD_0":2
					},
					"indices":3,
					"material":0
				}
			]
		},
		{
			"name":"hill_single_C.002",
			"primitives":[
				{
					"attributes":{
						"POSITION":4,
						"NORMAL":5,
						"TEXCOORD_0":6
					},
					"indices":7,
					"material":1
				}
			]
		},
		{
			"name":"rock_single_A.004",
			"primitives":[
				{
					"attributes":{
						"POSITION":8,
						"NORMAL":9,
						"TEXCOORD_0":10
					},
					"indices":11,
					"material":2
				}
			]
		},
		{
			"name":"rock_single_B.002",
			"primitives":[
				{
					"attributes":{
						"POSITION":12,
						"NORMAL":13,
						"TEXCOORD_0":14
					},
					"indices":15,
					"material":3
				}
			]
		},
		{
			"name":"rock_single_C.005",
			"primitives":[
				{
					"attributes":{
						"POSITION":16,
						"NORMAL":17,
						"TEXCOORD_0":18
					},
					"indices":19,
					"material":4
				}
			]
		},
		{
			"name":"rock_single_D.003",
			"primitives":[
				{
					"attributes":{
						"POSITION":20,
						"NORMAL":21,
						"TEXCOORD_0":22
					},
					"indices":23,
					"material":5
				}
			]
		},
		{
			"name":"rock_single_E.002",
			"primitives":[
				{
					"attributes":{
						"POSITION":24,
						"NORMAL":25,
						"TEXCOORD_0":26
					},
					"indices":27,
					"material":6
				}
			]
		},
		{
			"name":"tree_single_B",
			"primitives":[
				{
					"attributes":{
						"POSITION":28,
						"NORMAL":29,
						"TEXCOORD_0":30
					},
					"indices":31,
					"material":7
				}
			]
		}
	],
	"textures":[
		{
			"sampler":0,
			"source":0
		},
		{
			"sampler":0,
			"source":0
		},
		{
			"sampler":0,
			"source":0
		},
		{
			"sampler":0,
			"source":0
		},
		{
			"sampler":0,
			"source":0
		},
		{
			"sampler":0,
			"source":0
		},
		{
			"sampler":0,
			"source":0
		},
		{
			"sampler":0,
			"source":0
		}
	],
	"images":[
		{
			"mimeType":"image/png",
			"name":"hexagons_medieval",
			"uri":"hexagons_medieval.png"
		}
	],
	"accessors":[
		{
			"bufferView":0,
			"componentType":5126,
			"count":93,
			"max":[
				0.5911246538162231,
				0.3072676658630371,
				0.4076184034347534
			],
			"min":[
				-0.5187833905220032,
				0,
				-0.40169641375541687
			],
			"type":"VEC3"
		},
		{
			"bufferView":1,
			"componentType":5126,
			"count":93,
			"type":"VEC3"
		},
		{
			"bufferView":2,
			"componentType":5126,
			"count":93,
			"type":"VEC2"
		},
		{
			"bufferView":3,
			"componentType":5123,
			"count":180,
			"type":"SCALAR"
		},
		{
			"bufferView":4,
			"componentType":5126,
			"count":95,
			"max":[
				0.5132275819778442,
				0.5885831117630005,
				0.6190618276596069
			],
			"min":[
				-0.5111537575721741,
				0,
				-0.7058466672897339
			],
			"type":"VEC3"
		},
		{
			"bufferView":5,
			"componentType":5126,
			"count":95,
			"type":"VEC3"
		},
		{
			"bufferView":6,
			"componentType":5126,
			"count":95,
			"type":"VEC2"
		},
		{
			"bufferView":7,
			"componentType":5123,
			"count":180,
			"type":"SCALAR"
		},
		{
			"bufferView":8,
			"componentType":5126,
			"count":35,
			"max":[
				0.14910902082920074,
				0.06930101662874222,
				0.12683971226215363
			],
			"min":[
				-0.14910900592803955,
				0,
				-0.15678249299526215
			],
			"type":"VEC3"
		},
		{
			"bufferView":9,
			"componentType":5126,
			"count":35,
			"type":"VEC3"
		},
		{
			"bufferView":10,
			"componentType":5126,
			"count":35,
			"type":"VEC2"
		},
		{
			"bufferView":11,
			"componentType":5123,
			"count":54,
			"type":"SCALAR"
		},
		{
			"bufferView":12,
			"componentType":5126,
			"count":46,
			"max":[
				0.14463868737220764,
				0.13458546996116638,
				0.12174663692712784
			],
			"min":[
				-0.14197711646556854,
				-9.681238033465434e-10,
				-0.12800288200378418
			],
			"type":"VEC3"
		},
		{
			"bufferView":13,
			"componentType":5126,
			"count":46,
			"type":"VEC3"
		},
		{
			"bufferView":14,
			"componentType":5126,
			"count":46,
			"type":"VEC2"
		},
		{
			"bufferView":15,
			"componentType":5123,
			"count":78,
			"type":"SCALAR"
		},
		{
			"bufferView":16,
			"componentType":5126,
			"count":61,
			"max":[
				0.1586364507675171,
				0.19468727707862854,
				0.16218942403793335
			],
			"min":[
				-0.18526723980903625,
				-9.38796074478887e-05,
				-0.18201489746570587
			],
			"type":"VEC3"
		},
		{
			"bufferView":17,
			"componentType":5126,
			"count":61,
			"type":"VEC3"
		},
		{
			"bufferView":18,
			"componentType":5126,
			"count":61,
			"type":"VEC2"
		},
		{
			"bufferView":19,
			"componentType":5123,
			"count":120,
			"type":"SCALAR"
		},
		{
			"bufferView":20,
			"componentType":5126,
			"count":38,
			"max":[
				0.14463868737220764,
				0.16293124854564667,
				0.12004894018173218
			],
			"min":[
				-0.14197711646556854,
				-9.681238033465434e-10,
				-0.12970057129859924
			],
			"type":"VEC3"
		},
		{
			"bufferView":21,
			"componentType":5126,
			"count":38,
			"type":"VEC3"
		},
		{
			"bufferView":22,
			"componentType":5126,
			"count":38,
			"type":"VEC2"
		},
		{
			"bufferView":23,
			"componentType":5123,
			"count":66,
			"type":"SCALAR"
		},
		{
			"bufferView":24,
			"componentType":5126,
			"count":121,
			"max":[
				0.23278957605361938,
				0.19468727707862854,
				0.1627117246389389
			],
			"min":[
				-0.2553517520427704,
				-9.38796074478887e-05,
				-0.18480737507343292
			],
			"type":"VEC3"
		},
		{
			"bufferView":25,
			"componentType":5126,
			"count":121,
			"type":"VEC3"
		},
		{
			"bufferView":26,
			"componentType":5126,
			"count":121,
			"type":"VEC2"
		},
		{
			"bufferView":27,
			"componentType":5123,
			"count":213,
			"type":"SCALAR"
		},
		{
			"bufferView":28,
			"componentType":5126,
			"count":189,
			"max":[
				0.34244194626808167,
				1.1126774549484253,
				0.360063761472702
			],
			"min":[
				-0.34244003891944885,
				-0.09999983757734299,
				-0.3600638508796692
			],
			"type":"VEC3"
		},
		{
			"bufferView":29,
			"componentType":5126,
			"count":189,
			"type":"VEC3"
		},
		{
			"bufferView":30,
			"componentType":5126,
			"count":189,
			"type":"VEC2"
		},
		{
			"bufferView":31,
			"componentType":5123,
			"count":660,
			"type":"SCALAR"
		}
	],
	"bufferViews":[
		{
			"buffer":0,
			"byteLength":1116,
			"byteOffset":0,
			"target":34962
		},
		{
			"buffer":0,
			"byteLength":1116,
			"byteOffset":1116,
			"target":34962
		},
		{
			"buffer":0,
			"byteLength":744,
			"byteOffset":2232,
			"target":34962
		},
		{
			"buffer":0,
			"byteLength":360,
			"byteOffset":2976,
			"target":34963
		},
		{
			"buffer":0,
			"byteLength":1140,
			"byteOffset":3336,
			"target":34962
		},
		{
			"buffer":0,
			"byteLength":1140,
			"byteOffset":4476,
			"target":34962
		},
		{
			"buffer":0,
			"byteLength":760,
			"byteOffset":5616,
			"target":34962
		},
		{
			"buffer":0,
			"byteLength":360,
			"byteOffset":6376,
			"target":34963
		},
		{
			"buffer":0,
			"byteLength":420,
			"byteOffset":6736,
			"target":34962
		},
		{
			"buffer":0,
			"byteLength":420,
			"byteOffset":7156,
			"target":34962
		},
		{
			"buffer":0,
			"byteLength":280,
			"byteOffset":7576,
			"target":34962
		},
		{
			"buffer":0,
			"byteLength":108,
			"byteOffset":7856,
			"target":34963
		},
		{
			"buffer":0,
			"byteLength":552,
			"byteOffset":7964,
			"target":34962
		},
		{
			"buffer":0,
			"byteLength":552,
			"byteOffset":8516,
			"target":34962
		},
		{
			"buffer":0,
			"byteLength":368,
			"byteOffset":9068,
			"target":34962
		},
		{
			"buffer":0,
			"byteLength":156,
			"byteOffset":9436,
			"target":34963
		},
		{
			"buffer":0,
			"byteLength":732,
			"byteOffset":9592,
			"target":34962
		},
		{
			"buffer":0,
			"byteLength":732,
			"byteOffset":10324,
			"target":34962
		},
		{
			"buffer":0,
			"byteLength":488,
			"byteOffset":11056,
			"target":34962
		},
		{
			"buffer":0,
			"byteLength":240,
			"byteOffset":11544,
			"target":34963
		},
		{
			"buffer":0,
			"byteLength":456,
			"byteOffset":11784,
			"target":34962
		},
		{
			"buffer":0,
			"byteLength":456,
			"byteOffset":12240,
			"target":34962
		},
		{
			"buffer":0,
			"byteLength":304,
			"byteOffset":12696,
			"target":34962
		},
		{
			"buffer":0,
			"byteLength":132,
			"byteOffset":13000,
			"target":34963
		},
		{
			"buffer":0,
			"byteLength":1452,
			"byteOffset":13132,
			"target":34962
		},
		{
			"buffer":0,
			"byteLength":1452,
			"byteOffset":14584,
			"target":34962
		},
		{
			"buffer":0,
			"byteLength":968,
			"byteOffset":16036,
			"target":34962
		},
		{
			"buffer":0,
			"byteLength":426,
			"byteOffset":17004,
			"target":34963
		},
		{
			"buffer":0,
			"byteLength":2268,
			"byteOffset":17432,
			"target":34962
		},
		{
			"buffer":0,
			"byteLength":2268,
			"byteOffset":19700,
			"target":34962
		},
		{
			"buffer":0,
			"byteLength":1512,
			"byteOffset":21968,
			"target":34962
		},
		{
			"buffer":0,
			"byteLength":1320,
			"byteOffset":23480,
			"target":34963
		}
	],
	"samplers":[
		{
			"magFilter":9729,
			"minFilter":9987
		}
	],
	"buffers":[
		{
			"byteLength":24800,
			"uri":"medium_4_B.bin"
		}
	]
}
