{
	"asset":{
		"generator":"Khronos glTF Blender I/O v5.1.19",
		"version":"2.0"
	},
	"scene":0,
	"scenes":[
		{
			"name":"Scene",
			"nodes":[
				0,
				1,
				2,
				3,
				4,
				5,
				6,
				7,
				8
			]
		}
	],
	"nodes":[
		{
			"mesh":0,
			"name":"tree_single_B",
			"translation":[
				0.3344001770019531,
				0.10000000149011612,
				0.24981646239757538
			]
		},
		{
			"mesh":0,
			"name":"tree_single_B.001",
			"translation":[
				0.2074737548828125,
				0.10000000149011612,
				-0.800320565700531
			]
		},
		{
			"mesh":0,
			"name":"tree_single_B.002",
			"translation":[
				-0.7535176277160645,
				0.10000000149011612,
				0.16548065841197968
			]
		},
		{
			"mesh":1,
			"name":"rock_single_C",
			"translation":[
				-0.4570949673652649,
				0,
				-0.6351704597473145
			]
		},
		{
			"mesh":2,
			"name":"rock_single_D",
			"scale":[
				2.0030195713043213,
				2.0030195713043213,
				2.0030195713043213
			],
			"translation":[
				-0.6474046111106873,
				0,
				-0.404052734375
			]
		},
		{
			"mesh":3,
			"name":"rock_single_A",
			"scale":[
				2.239833354949951,
				2.239833354949951,
				2.239833354949951
			],
			"translation":[
				-0.29679423570632935,
				0,
				0.17842210829257965
			]
		},
		{
			"mesh":4,
			"name":"hill_single_A",
			"scale":[
				0.4810153841972351,
				0.4810153841972351,
				0.4810153841972351
			],
			"translation":[
				0.5817397832870483,
				0,
				-0.3412936329841614
			]
		},
		{
			"mesh":4,
			"name":"hill_single_A.001",
			"scale":[
				0.31013888120651245,
				0.31013888120651245,
				0.31013888120651245
			],
			"translation":[
				0.45601126551628113,
				-0.012923662550747395,
				-0.11630415916442871
			]
		},
		{
			"mesh":5,
			"name":"rock_single_A.001",
			"scale":[
				0.5618379712104797,
				0.5618379712104797,
				0.5618379712104797
			],
			"translation":[
				0.6416314840316772,
				0,
				-0.1625991314649582
			]
		}
	],
	"materials":[
		{
			"name":"hexagons_medieval.015",
			"pbrMetallicRoughness":{
				"baseColorTexture":{
					"index":0
				},
				"metallicFactor":0,
				"roughnessFactor":0.5
			}
		},
		{
			"name":"hexagons_medieval.016",
			"pbrMetallicRoughness":{
				"baseColorTexture":{
					"index":1
				},
				"metallicFactor":0,
				"roughnessFactor":0.5
			}
		},
		{
			"name":"hexagons_medieval.017",
			"pbrMetallicRoughness":{
				"baseColorTexture":{
					"index":2
				},
				"metallicFactor":0,
				"roughnessFactor":0.5
			}
		},
		{
			"name":"hexagons_medieval.024",
			"pbrMetallicRoughness":{
				"baseColorTexture":{
					"index":3
				},
				"metallicFactor":0,
				"roughnessFactor":0.5
			}
		},
		{
			"name":"hexagons_medieval.026",
			"pbrMetallicRoughness":{
				"baseColorTexture":{
					"index":4
				},
				"metallicFactor":0,
				"roughnessFactor":0.5
			}
		},
		{
			"name":"hexagons_medieval.027",
			"pbrMetallicRoughness":{
				"baseColorTexture":{
					"index":5
				},
				"metallicFactor":0,
				"roughnessFactor":0.5
			}
		}
	],
	"meshes":[
		{
			"name":"tree_single_B.003",
			"primitives":[
				{
					"attributes":{
						"POSITION":0,
						"NORMAL":1,
						"TEXCOORD_0":2
					},
					"indices":3,
					"material":0
				}
			]
		},
		{
			"name":"rock_single_C.004",
			"primitives":[
				{
					"attributes":{
						"POSITION":4,
						"NORMAL":5,
						"TEXCOORD_0":6
					},
					"indices":7,
					"material":1
				}
			]
		},
		{
			"name":"rock_single_D.002",
			"primitives":[
				{
					"attributes":{
						"POSITION":8,
						"NORMAL":9,
						"TEXCOORD_0":10
					},
					"indices":11,
					"material":2
				}
			]
		},
		{
			"name":"rock_single_A.002",
			"primitives":[
				{
					"attributes":{
						"POSITION":12,
						"NORMAL":13,
						"TEXCOORD_0":14
					},
					"indices":15,
					"material":3
				}
			]
		},
		{
			"name":"hill_single_A.002",
			"primitives":[
				{
					"attributes":{
						"POSITION":16,
						"NORMAL":17,
						"TEXCOORD_0":18
					},
					"indices":19,
					"material":4
				}
			]
		},
		{
			"name":"rock_single_A.003",
			"primitives":[
				{
					"attributes":{
						"POSITION":20,
						"NORMAL":21,
						"TEXCOORD_0":22
					},
					"indices":15,
					"material":5
				}
			]
		}
	],
	"textures":[
		{
			"sampler":0,
			"source":0
		},
		{
			"sampler":0,
			"source":0
		},
		{
			"sampler":0,
			"source":0
		},
		{
			"sampler":0,
			"source":0
		},
		{
			"sampler":0,
			"source":0
		},
		{
			"sampler":0,
			"source":0
		}
	],
	"images":[
		{
			"mimeType":"image/png",
			"name":"hexagons_medieval",
			"uri":"hexagons_medieval.png"
		}
	],
	"accessors":[
		{
			"bufferView":0,
			"componentType":5126,
			"count":189,
			"max":[
				0.34244194626808167,
				1.1126774549484253,
				0.360063761472702
			],
			"min":[
				-0.34244003891944885,
				-0.09999983757734299,
				-0.3600638508796692
			],
			"type":"VEC3"
		},
		{
			"bufferView":1,
			"componentType":5126,
			"count":189,
			"type":"VEC3"
		},
		{
			"bufferView":2,
			"componentType":5126,
			"count":189,
			"type":"VEC2"
		},
		{
			"bufferView":3,
			"componentType":5123,
			"count":660,
			"type":"SCALAR"
		},
		{
			"bufferView":4,
			"componentType":5126,
			"count":61,
			"max":[
				0.1586364507675171,
				0.19468727707862854,
				0.16218942403793335
			],
			"min":[
				-0.18526723980903625,
				-9.38796074478887e-05,
				-0.18201489746570587
			],
			"type":"VEC3"
		},
		{
			"bufferView":5,
			"componentType":5126,
			"count":61,
			"type":"VEC3"
		},
		{
			"bufferView":6,
			"componentType":5126,
			"count":61,
			"type":"VEC2"
		},
		{
			"bufferView":7,
			"componentType":5123,
			"count":120,
			"type":"SCALAR"
		},
		{
			"bufferView":8,
			"componentType":5126,
			"count":38,
			"max":[
				0.14463868737220764,
				0.16293124854564667,
				0.12004894018173218
			],
			"min":[
				-0.14197711646556854,
				-9.681238033465434e-10,
				-0.12970057129859924
			],
			"type":"VEC3"
		},
		{
			"bufferView":9,
			"componentType":5126,
			"count":38,
			"type":"VEC3"
		},
		{
			"bufferView":10,
			"componentType":5126,
			"count":38,
			"type":"VEC2"
		},
		{
			"bufferView":11,
			"componentType":5123,
			"count":66,
			"type":"SCALAR"
		},
		{
			"bufferView":12,
			"componentType":5126,
			"count":35,
			"max":[
				0.14910902082920074,
				0.06930101662874222,
				0.12683971226215363
			],
			"min":[
				-0.14910900592803955,
				0,
				-0.15678249299526215
			],
			"type":"VEC3"
		},
		{
			"bufferView":13,
			"componentType":5126,
			"count":35,
			"type":"VEC3"
		},
		{
			"bufferView":14,
			"componentType":5126,
			"count":35,
			"type":"VEC2"
		},
		{
			"bufferView":15,
			"componentType":5123,
			"count":54,
			"type":"SCALAR"
		},
		{
			"bufferView":16,
			"componentType":5126,
			"count":93,
			"max":[
				0.5911246538162231,
				0.3072676658630371,
				0.4076184034347534
			],
			"min":[
				-0.5187833905220032,
				0,
				-0.40169641375541687
			],
			"type":"VEC3"
		},
		{
			"bufferView":17,
			"componentType":5126,
			"count":93,
			"type":"VEC3"
		},
		{
			"bufferView":18,
			"componentType":5126,
			"count":93,
			"type":"VEC2"
		},
		{
			"bufferView":19,
			"componentType":5123,
			"count":180,
			"type":"SCALAR"
		},
		{
			"bufferView":20,
			"componentType":5126,
			"count":35,
			"max":[
				0.14910902082920074,
				0.06930101662874222,
				0.12683971226215363
			],
			"min":[
				-0.14910900592803955,
				0,
				-0.15678249299526215
			],
			"type":"VEC3"
		},
		{
			"bufferView":21,
			"componentType":5126,
			"count":35,
			"type":"VEC3"
		},
		{
			"bufferView":22,
			"componentType":5126,
			"count":35,
			"type":"VEC2"
		}
	],
	"bufferViews":[
		{
			"buffer":0,
			"byteLength":2268,
			"byteOffset":0,
			"target":34962
		},
		{
			"buffer":0,
			"byteLength":2268,
			"byteOffset":2268,
			"target":34962
		},
		{
			"buffer":0,
			"byteLength":1512,
			"byteOffset":4536,
			"target":34962
		},
		{
			"buffer":0,
			"byteLength":1320,
			"byteOffset":6048,
			"target":34963
		},
		{
			"buffer":0,
			"byteLength":732,
			"byteOffset":7368,
			"target":34962
		},
		{
			"buffer":0,
			"byteLength":732,
			"byteOffset":8100,
			"target":34962
		},
		{
			"buffer":0,
			"byteLength":488,
			"byteOffset":8832,
			"target":34962
		},
		{
			"buffer":0,
			"byteLength":240,
			"byteOffset":9320,
			"target":34963
		},
		{
			"buffer":0,
			"byteLength":456,
			"byteOffset":9560,
			"target":34962
		},
		{
			"buffer":0,
			"byteLength":456,
			"byteOffset":10016,
			"target":34962
		},
		{
			"buffer":0,
			"byteLength":304,
			"byteOffset":10472,
			"target":34962
		},
		{
			"buffer":0,
			"byteLength":132,
			"byteOffset":10776,
			"target":34963
		},
		{
			"buffer":0,
			"byteLength":420,
			"byteOffset":10908,
			"target":34962
		},
		{
			"buffer":0,
			"byteLength":420,
			"byteOffset":11328,
			"target":34962
		},
		{
			"buffer":0,
			"byteLength":280,
			"byteOffset":11748,
			"target":34962
		},
		{
			"buffer":0,
			"byteLength":108,
			"byteOffset":12028,
			"target":34963
		},
		{
			"buffer":0,
			"byteLength":1116,
			"byteOffset":12136,
			"target":34962
		},
		{
			"buffer":0,
			"byteLength":1116,
			"byteOffset":13252,
			"target":34962
		},
		{
			"buffer":0,
			"byteLength":744,
			"byteOffset":14368,
			"target":34962
		},
		{
			"buffer":0,
			"byteLength":360,
			"byteOffset":15112,
			"target":34963
		},
		{
			"buffer":0,
			"byteLength":420,
			"byteOffset":15472,
			"target":34962
		},
		{
			"buffer":0,
			"byteLength":420,
			"byteOffset":15892,
			"target":34962
		},
		{
			"buffer":0,
			"byteLength":280,
			"byteOffset":16312,
			"target":34962
		}
	],
	"samplers":[
		{
			"magFilter":9729,
			"minFilter":9987
		}
	],
	"buffers":[
		{
			"byteLength":16592,
			"uri":"medium_3_B.bin"
		}
	]
}
